<svg width="61" height="56" viewBox="0 0 61 56" fill="none" xmlns="http://www.w3.org/2000/svg">
<path fill-rule="evenodd" clip-rule="evenodd" d="M55 23.952C56.3728 23.1496 57.5395 22.038 58.4075 20.7057C59.2755 19.3734 59.8208 17.857 60 16.277C60.4061 13.1701 59.8291 10.0141 58.35 7.25198C57.0227 4.68904 54.924 2.60775 52.35 1.30198C49.7165 -0.00432536 46.7069 -0.340695 43.85 0.351977C41.5032 0.878364 39.2517 1.76379 37.175 2.97698C35.7367 3.8431 34.4733 4.97086 33.45 6.30198C32.411 7.83035 31.6879 9.55088 31.323 11.3626C30.9581 13.1742 30.9588 15.0406 31.325 16.852C31.5971 18.6702 32.2669 20.4061 33.2867 21.9358C34.3065 23.4656 35.6513 24.7515 37.225 25.702C38.9567 26.6027 40.8734 27.0904 42.825 27.127C45.6017 27.147 48.3657 26.751 51.025 25.952C51.1484 25.9152 51.2587 25.8438 51.3428 25.7464C51.427 25.6489 51.4815 25.5294 51.5 25.402C51.8878 26.3069 52.3217 27.1914 52.8 28.052C53.046 28.4712 53.3217 28.8722 53.625 29.252C53.9218 29.6433 54.2389 30.0188 54.575 30.377C55.375 31.227 56.225 32.002 57.075 32.877C57.1496 32.9541 57.2389 33.0154 57.3377 33.0573C57.4365 33.0992 57.5427 33.1208 57.65 33.1208C57.7573 33.1208 57.8635 33.0992 57.9623 33.0573C58.0611 33.0154 58.1504 32.9541 58.225 32.877C58.3731 32.7272 58.4561 32.5251 58.4561 32.3145C58.4561 32.1039 58.3731 31.9017 58.225 31.752C57.625 30.777 57.1 29.777 56.5 28.827C56.2453 28.4134 55.97 28.0129 55.675 27.627C55.4029 27.2305 55.1021 26.8545 54.775 26.502C54.2 25.877 53.6 25.327 53 24.752H53.3C53.8951 24.5505 54.4654 24.2821 55 23.952ZM42.875 25.377C41.219 25.2926 39.6073 24.8125 38.175 23.977C36.9217 23.1324 35.8692 22.0229 35.0916 20.727C34.3141 19.4311 33.8305 17.9803 33.675 16.477C33.1543 13.4958 33.8376 10.4299 35.575 7.95198C36.6332 6.62996 37.9745 5.5621 39.5 4.82698C41.0875 4.02647 42.7665 3.42203 44.5 3.02698C46.7541 2.44307 49.1414 2.66412 51.25 3.65198C53.3579 4.6944 55.1009 6.35031 56.25 8.40198C57.6041 10.7109 58.1988 13.3869 57.95 16.052C57.8425 17.3524 57.4371 18.6106 56.7651 19.7291C56.0931 20.8476 55.1726 21.7964 54.075 22.502C53.5632 22.8122 53.0181 23.0637 52.45 23.252C49.475 24.177 48.95 25.877 42.75 25.377H42.875Z" fill="white" fill-opacity="0.35"/>
<path fill-rule="evenodd" clip-rule="evenodd" d="M48 32.0019C47.5128 32.2237 46.9852 32.3428 46.45 32.3519C45 32.6269 43.225 32.6269 41.175 32.6269H37.5H35.7C33.7 32.8019 31.875 32.9769 30.5 33.1519V32.1519C30.3577 31.2781 29.9764 30.4606 29.3984 29.79C28.8204 29.1194 28.0682 28.6217 27.225 28.3519C26.3684 28.1017 25.4556 28.1211 24.6104 28.4073C23.7651 28.6935 23.0284 29.2327 22.5 29.9519C21.7558 30.8716 21.28 31.979 21.125 33.1519C21.125 33.1519 21.125 33.4019 21.125 33.5269C19.1 33.3769 14.6 33.1769 10.6 32.7269C9.19785 32.5839 7.80424 32.367 6.425 32.0769C5.68909 31.9724 4.98268 31.717 4.35 31.3269C3.22663 30.32 2.52186 28.9283 2.375 27.4269C2.13592 24.8216 2.17782 22.1982 2.5 19.6019C2.52858 19.487 2.52858 19.3668 2.5 19.2519C5.75 19.5019 8.975 19.7769 12.25 19.8519H18.375C21.45 19.8519 24.5 19.6269 27.55 19.6019C27.6571 19.6086 27.7645 19.5938 27.8657 19.5582C27.967 19.5226 28.06 19.467 28.1393 19.3946C28.2187 19.3223 28.2826 19.2348 28.3274 19.1373C28.3722 19.0397 28.3969 18.9342 28.4 18.8269C28.4084 18.7087 28.3904 18.5902 28.3474 18.4799C28.3044 18.3695 28.2374 18.2701 28.1513 18.1888C28.0652 18.1074 27.9621 18.0462 27.8495 18.0096C27.7368 17.973 27.6175 17.9618 27.5 17.9769C24.55 17.6269 21.575 17.4019 18.55 17.2519H15.825C15.9637 16.1524 16.1894 15.0657 16.5 14.0019C16.6352 13.3539 16.9881 12.7716 17.5 12.3519C18.0274 11.9976 18.6238 11.7591 19.25 11.6519C20.0061 11.4638 20.7748 11.3302 21.55 11.2519C23.2107 11.0769 24.8803 11.0018 26.55 11.0269C26.6608 11.0484 26.7749 11.0462 26.8848 11.0204C26.9947 10.9947 27.0979 10.946 27.1876 10.8775C27.2773 10.809 27.3516 10.7223 27.4054 10.6231C27.4592 10.5239 27.4915 10.4144 27.5 10.3019C27.5143 10.0843 27.4444 9.86956 27.3048 9.70205C27.1652 9.53454 26.9666 9.42708 26.75 9.40189C24.6757 8.98956 22.5649 8.78854 20.45 8.80189C18.8134 8.83449 17.2225 9.34741 15.875 10.2769C15.183 10.9549 14.7124 11.8264 14.525 12.7769C14.2694 14.2627 14.2106 15.7757 14.35 17.2769H10.95C7.875 17.3519 5 17.6269 1.925 17.7769C0.9 17.7769 0 25.6519 0 27.6269C0.0726326 29.7624 0.968472 31.787 2.5 33.2769C4.29772 34.4176 6.37159 35.0484 8.5 35.1019C12.664 35.3119 16.836 35.3119 21 35.1019C21 36.0019 21.15 36.9019 21.275 37.6019C21.2998 37.7874 21.393 37.9569 21.5364 38.0772C21.6798 38.1975 21.863 38.2598 22.05 38.2519C22.213 38.2364 22.366 38.1662 22.484 38.0527C22.602 37.9393 22.6781 37.7892 22.7 37.6269C22.5945 36.2458 22.6871 34.8567 22.975 33.5019C23.1857 32.7297 23.5902 32.024 24.15 31.4519C24.4322 31.1695 24.7898 30.9745 25.18 30.8902C25.5702 30.8059 25.9765 30.836 26.35 30.9769C26.7215 31.1084 27.0503 31.3383 27.3013 31.6421C27.5523 31.9459 27.716 32.3122 27.775 32.7019C27.775 33.1269 27.9 33.6019 27.95 34.0769V34.2519V34.5019C28.0248 35.2166 28.0248 35.9372 27.95 36.6519C27.869 37.4555 27.5945 38.2275 27.15 38.9019C26.7636 39.3837 26.2775 39.776 25.725 40.0519C25.5147 40.1937 25.2757 40.2874 25.0251 40.3263C24.7745 40.3651 24.5184 40.3483 24.275 40.2769C24.1095 40.2032 23.9701 40.0812 23.875 39.9269C23.725 39.6769 23.6 39.4019 23.475 39.1519C23.3827 38.9588 23.219 38.8091 23.0184 38.7345C22.8178 38.6599 22.5961 38.6661 22.4 38.7519C22.2998 38.7921 22.209 38.8528 22.1337 38.9301C22.0583 39.0075 21.9999 39.0997 21.9622 39.2009C21.9245 39.3021 21.9084 39.4101 21.915 39.5179C21.9215 39.6257 21.9504 39.7309 22 39.8269C22.1477 40.2423 22.3318 40.6438 22.55 41.0269C22.7667 41.3477 23.0476 41.6201 23.375 41.8269C23.7533 42.0351 24.1698 42.1645 24.5994 42.2075C25.0291 42.2505 25.463 42.206 25.875 42.0769C26.9948 41.7523 28.0056 41.1302 28.8 40.2769C29.5569 39.376 30.0806 38.3028 30.325 37.1519C30.4713 36.4693 30.555 35.7747 30.575 35.0769C31.95 35.0769 33.775 35.3269 35.8 35.3519C37.4 35.3519 39.075 35.3519 40.675 35.1769C43.56 35.1268 46.4 34.453 49 33.2019C49.1423 33.0492 49.2215 32.8482 49.2215 32.6394C49.2215 32.4306 49.1423 32.2296 49 32.0769C48.8647 31.9563 48.6934 31.8836 48.5127 31.87C48.332 31.8565 48.1518 31.9028 48 32.0019Z" fill="white" fill-opacity="0.35"/>
<path fill-rule="evenodd" clip-rule="evenodd" d="M47.325 35.777C47.2179 35.7702 47.1105 35.7851 47.0093 35.8207C46.908 35.8563 46.815 35.9119 46.7357 35.9842C46.6563 36.0566 46.5924 36.1441 46.5476 36.2416C46.5028 36.3392 46.4781 36.4447 46.475 36.552L45.95 46.802C45.9852 47.8084 45.9013 48.8153 45.7 49.802C45.6073 50.3031 45.3526 50.7598 44.975 51.102C44.1456 51.6921 43.1842 52.0698 42.175 52.202C40.4446 52.4553 38.6988 52.589 36.95 52.602H30.15C24.775 52.427 19.425 52.052 14.05 52.027C11.9439 52.1649 9.83108 52.1649 7.725 52.027C6.52377 51.9965 5.36524 51.5752 4.425 50.827C4.10126 50.4749 3.89963 50.0278 3.85 49.552C3.75033 48.5879 3.75033 47.6161 3.85 46.652V39.152C3.85 38.127 3.85 37.077 3.975 36.027C3.98899 35.8386 3.92888 35.6522 3.80748 35.5074C3.68607 35.3627 3.51296 35.271 3.325 35.252C3.23105 35.2417 3.13598 35.2505 3.04552 35.2779C2.95506 35.3053 2.87109 35.3507 2.79867 35.4115C2.72625 35.4722 2.66688 35.547 2.62414 35.6313C2.58141 35.7156 2.55618 35.8077 2.55 35.902C2.425 36.977 2.35 38.052 2.3 39.102C2.175 41.602 2.15 44.102 2 46.602C1.91105 47.6835 1.91105 48.7705 2 49.852C2.05322 50.7763 2.41402 51.6563 3.025 52.352C3.94663 53.2831 5.1193 53.9259 6.4 54.202C8.97599 54.6366 11.589 54.8125 14.2 54.727C19.55 54.727 24.9 55.252 30.25 55.377C32.575 55.377 34.9 55.377 37.25 55.252C39.1218 55.1899 40.9859 54.9809 42.825 54.627C44.2153 54.3767 45.5214 53.7838 46.625 52.902C47.3012 52.2193 47.7545 51.3476 47.925 50.402C48.1113 49.2537 48.1783 48.0891 48.125 46.927L48.25 36.752C48.2815 36.6221 48.28 36.4864 48.2456 36.3572C48.2112 36.2281 48.1449 36.1096 48.0529 36.0127C47.961 35.9157 47.8461 35.8433 47.719 35.8022C47.5918 35.761 47.4564 35.7523 47.325 35.777Z" fill="white" fill-opacity="0.35"/>
</svg>
