<svg width="60" height="60" viewBox="0 0 60 60" fill="none" xmlns="http://www.w3.org/2000/svg">
<path d="M53.0273 4.27734L34.2773 23.0273L31.875 20.625V20.5664L31.8164 20.5078C30.6152 19.4385 29.0479 18.9258 27.5391 18.9258C26.0303 18.9258 24.5728 19.4897 23.4375 20.625L23.1445 20.8594L22.207 21.7969L21.5625 22.3242L4.45312 35.625L2.8125 36.9727L23.0273 57.1875L24.375 55.5469L37.6172 38.5547L37.6758 38.6133L39.5508 36.7383H39.6094L39.668 36.6797C41.8066 34.27 41.8213 30.5713 39.5508 28.3008L36.9727 25.7227L55.7227 6.97266L53.0273 4.27734ZM27.5391 22.6758C28.1177 22.6611 28.7549 22.8589 29.2383 23.2617C29.2603 23.2764 29.2749 23.3057 29.2969 23.3203L36.9141 30.9375C37.6172 31.6406 37.6831 33.1348 36.9141 34.1016C36.8848 34.1382 36.8848 34.1821 36.8555 34.2188L36.2695 34.7461L25.4297 23.9062L26.0742 23.2617C26.4331 22.9028 26.9604 22.6904 27.5391 22.6758ZM22.5586 26.3086L33.6914 37.4414L22.6758 51.5039L19.9805 48.8086L24.0234 44.5898L21.3281 42.0117L17.3438 46.1719L14.8828 43.7109L22.1484 36.3867L19.5117 33.75L12.1875 41.0156L8.49609 37.3242L22.5586 26.3086Z" fill="white" fill-opacity="0.35"/>
</svg>
