<svg width="60" height="60" viewBox="0 0 60 60" fill="none" xmlns="http://www.w3.org/2000/svg">
<g clip-path="url(#clip0_18_451)">
<path d="M38.775 18.575C39.6255 18.9135 40.5162 19.1404 41.425 19.25C42.3072 19.3128 43.1928 19.3128 44.075 19.25C44.2563 19.2435 44.428 19.1669 44.5539 19.0363C44.6798 18.9058 44.7501 18.7314 44.75 18.55C44.75 18.371 44.6789 18.1993 44.5523 18.0727C44.4257 17.9461 44.254 17.875 44.075 17.875C43.2381 17.8645 42.4029 17.7977 41.575 17.675C40.8075 17.5461 40.0598 17.3192 39.35 17C37.9713 16.5758 36.807 15.6403 36.0958 14.3853C35.3846 13.1303 35.1804 11.6508 35.525 10.25C36.0233 8.55286 36.9739 7.02325 38.275 5.825C40.1259 3.90923 42.6182 2.7432 45.275 2.55C49.7 2.35 52.225 6.225 52.525 10.05C52.7073 11.0417 52.677 12.0607 52.4362 13.0399C52.1954 14.019 51.7495 14.9358 51.128 15.7298C50.5066 16.5238 49.7236 17.1768 48.831 17.6457C47.9384 18.1147 46.9564 18.3888 45.95 18.45C45.7422 18.4629 45.5477 18.5563 45.4076 18.7103C45.2676 18.8644 45.1931 19.0669 45.2 19.275C45.2188 19.4806 45.3139 19.6716 45.4666 19.8105C45.6194 19.9493 45.8186 20.0259 46.025 20.025C52.225 20 55 15 54.775 10C54.8149 8.71782 54.6002 7.44045 54.1431 6.24185C53.686 5.04324 52.9957 3.94719 52.1122 3.01716C51.2287 2.08713 50.1695 1.34159 48.9958 0.823693C47.8222 0.305794 46.5576 0.0258278 45.275 0C42.5179 0.169555 39.8885 1.22134 37.775 3C35.6074 4.72438 34.0838 7.12864 33.45 9.825C33.0629 11.6868 33.3976 13.6262 34.3862 15.2506C35.3748 16.8751 36.9435 18.0633 38.775 18.575Z" fill="white" fill-opacity="0.35"/>
<path d="M14.7 53.4249L7.02501 52.1998C6.40001 52.0748 5.40001 52.0499 4.52501 51.8749C4.14909 51.8399 3.78801 51.711 3.47501 51.4999C3.06559 51.0424 2.81941 50.4621 2.77501 49.8499C2.59664 48.6984 2.59664 47.5263 2.77501 46.3748L3.67501 42.1749C3.82501 41.5499 3.95001 40.1499 4.17501 38.7999C4.25531 38.2383 4.38926 37.6858 4.57501 37.1499C4.57501 36.9749 4.85001 36.8499 4.77501 36.7499C5.56675 36.4211 6.41786 36.2593 7.27501 36.2749C7.94445 36.276 8.6129 36.3261 9.27501 36.4249L8.15001 40.9249C7.91924 41.5995 7.75185 42.2942 7.65001 42.9999C7.60374 43.4833 7.6993 43.9698 7.92501 44.3999C8.48899 45.112 9.20731 45.6868 10.0258 46.0809C10.8443 46.475 11.7416 46.6781 12.65 46.6749C13.5588 46.818 14.4888 46.7381 15.3598 46.4419C16.2308 46.1458 17.0168 45.6423 17.65 44.9749C18.2274 44.0258 18.5781 42.9565 18.675 41.8499C18.8405 40.3711 18.8405 38.8786 18.675 37.3999H20.225H20.725L20.875 35.6749H20.425C17.925 35.3249 15.725 35.2249 12.475 34.6249C10.8272 34.2512 9.15712 33.984 7.47501 33.8249C6.20237 33.7546 4.93002 33.9681 3.75001 34.4499C3.06094 34.8266 2.54214 35.4528 2.30001 36.1999C1.83489 37.9488 1.49239 39.7282 1.27501 41.5249C1.05001 42.3999 0.850013 43.2999 0.675013 44.1999C0.500013 45.0999 0.475013 45.4249 0.400013 46.0499C0.165043 47.4568 0.165043 48.8929 0.400013 50.2999C0.605725 51.4056 1.17822 52.4097 2.02501 53.1499C2.50933 53.5149 3.07596 53.7553 3.67501 53.8499C4.70001 54.0249 5.97501 53.9749 6.75001 54.0499C8.82501 54.2499 10 54.2999 11.375 54.4249C12.225 54.4249 13.15 54.5999 14.425 54.7999C14.5985 54.811 14.7698 54.7572 14.9058 54.649C15.0418 54.5408 15.1327 54.3859 15.1608 54.2143C15.1888 54.0428 15.1521 53.867 15.0577 53.7211C14.9633 53.5751 14.818 53.4696 14.65 53.4249H14.7ZM10.375 41.3499L10.85 36.5999L12.075 36.7749C14.075 37.0249 15.625 37.1249 17.075 37.2249C17.0609 37.316 17.0609 37.4087 17.075 37.4999C17.1122 38.8422 16.9948 40.1844 16.725 41.4999C16.5846 42.2669 16.2584 42.9879 15.775 43.5999C15.625 43.7999 15.3 43.8499 14.975 43.9249C14.3121 44.0821 13.6272 44.1244 12.95 44.0499C12.2629 44.0123 11.587 43.8602 10.95 43.5999C10.65 43.4749 10.35 43.3999 10.225 43.1999C10.2089 42.5796 10.2592 41.9594 10.375 41.3499Z" fill="white" fill-opacity="0.35"/>
<path d="M59.375 53.7749C57.8256 50.9106 56.0972 48.1468 54.2 45.4999C53.8486 44.8586 53.5718 44.1792 53.375 43.4749C53.2395 42.9502 53.2395 42.3996 53.375 41.8749C54.0338 40.2534 54.5605 38.5813 54.95 36.8749C55.1041 34.4882 54.9359 32.0917 54.45 29.7499C54.0266 27.4324 53.3734 25.1629 52.5 22.9749C52.4695 22.8753 52.4186 22.7832 52.3506 22.7044C52.2825 22.6255 52.1988 22.5618 52.1047 22.5171C52.0106 22.4724 51.9083 22.4478 51.8042 22.4448C51.7001 22.4419 51.5965 22.4606 51.5 22.4999C51.3059 22.578 51.15 22.729 51.0659 22.9206C50.9818 23.1122 50.9761 23.3292 51.05 23.5249C51.8747 25.6249 52.4861 27.8025 52.875 30.0249C53.2679 32.2185 53.3771 34.4535 53.2 36.6749C52.7752 38.2503 52.2234 39.7887 51.55 41.2749C51.2782 42.1402 51.2267 43.0597 51.4 43.9499C51.6235 44.8157 51.9421 45.6542 52.35 46.4499C54.1229 49.0571 55.7343 51.7705 57.175 54.5749C57.4192 55.1772 57.48 55.8382 57.35 56.4749C57.3148 56.6983 57.2158 56.9067 57.065 57.0752C56.9143 57.2437 56.7181 57.3651 56.5 57.4249C55.6557 57.6384 54.7617 57.5222 54 57.0999C52.6302 56.3655 51.4093 55.382 50.4 54.1999C48.2575 52.0521 46.5586 49.5037 45.4 46.6999C44.2734 43.9172 43.7617 40.9238 43.9 37.9249V33.7749C43.8748 32.8133 43.7997 31.8537 43.675 30.8999C43.5634 30.1774 43.3877 29.4663 43.15 28.7749C43.0604 28.5681 42.9231 28.3855 42.7493 28.2421C42.5754 28.0987 42.3701 27.9986 42.15 27.9499C40.5691 27.6879 38.9559 27.6879 37.375 27.9499C34.025 28.4749 30.35 29.7249 27.375 29.8999C26.8272 29.9448 26.2758 29.8854 25.75 29.7249L25.9 28.2249C26.175 27.9999 26.475 27.7499 26.875 27.4749L30 25.9749L35.2 23.7999C36.575 23.2999 37.925 22.8249 39.3 22.4249C40.6807 22.0152 42.0828 21.6814 43.5 21.4249C43.689 21.3884 43.8557 21.2784 43.9636 21.119C44.0714 20.9596 44.1115 20.7639 44.075 20.5749C44.0385 20.3859 43.9285 20.2192 43.7691 20.1114C43.6097 20.0035 43.414 19.9634 43.225 19.9999C41.751 20.2286 40.2905 20.5374 38.85 20.9249C37.425 21.3249 36.025 21.7499 34.625 22.2499L29.2 24.3249L26.425 25.7499C26.825 21.2249 27.075 16.7249 27.65 12.2249C27.6612 12.0515 27.6074 11.8801 27.4992 11.7441C27.391 11.6081 27.236 11.5172 27.0645 11.4892C26.893 11.4611 26.7172 11.4978 26.5712 11.5923C26.4253 11.6867 26.3197 11.832 26.275 11.9999C25.25 16.9999 24.35 21.9999 23.775 26.9999C21.75 43.4749 23.125 35.9999 21.85 48.2249C20.6444 48.25 19.4787 48.662 18.525 49.3999C17.3784 50.3033 16.597 51.5907 16.325 53.0249C16.1568 53.7169 16.1524 54.4386 16.3123 55.1325C16.4721 55.8265 16.7917 56.4736 17.2457 57.0222C17.6997 57.5709 18.2755 58.006 18.9273 58.2929C19.579 58.5798 20.2888 58.7106 21 58.6749C21.0907 58.6853 21.1825 58.6771 21.2699 58.651C21.3574 58.6248 21.4386 58.5812 21.5087 58.5228C21.5788 58.4644 21.6363 58.3924 21.6778 58.3111C21.7193 58.2298 21.7438 58.141 21.75 58.0499C21.764 57.8681 21.7066 57.688 21.5898 57.548C21.4731 57.4079 21.3063 57.3189 21.125 57.2999C20.6742 57.2886 20.2323 57.1715 19.8351 56.9579C19.438 56.7443 19.0966 56.4403 18.8386 56.0703C18.5807 55.7004 18.4133 55.275 18.3502 54.8285C18.287 54.382 18.3298 53.9269 18.475 53.4999C18.6991 52.6335 19.2316 51.8786 19.9727 51.3769C20.7137 50.8752 21.6124 50.6612 22.5 50.7749C23.2512 50.8978 23.9355 51.2804 24.4334 51.856C24.9314 52.4317 25.2116 53.1639 25.225 53.9249C25.425 55.4999 24.775 57.1499 22.725 57.2249C22.5189 57.2308 22.3226 57.3136 22.1745 57.457C22.0264 57.6005 21.9374 57.7941 21.925 57.9999C21.9249 58.2078 22.0058 58.4076 22.1504 58.5569C22.2951 58.7063 22.4922 58.7934 22.7 58.7999C23.3529 58.8489 24.0085 58.7499 24.6178 58.5103C25.2271 58.2707 25.7744 57.8966 26.219 57.416C26.6636 56.9353 26.994 56.3605 27.1855 55.7344C27.377 55.1083 27.4247 54.447 27.325 53.7999C27.3176 52.6094 26.9409 51.4506 26.2468 50.4833C25.5527 49.5161 24.5755 48.7881 23.45 48.3999C24.2667 43.8832 24.9583 39.3499 25.525 34.7999C25.525 33.8249 25.725 32.8499 25.825 31.8749C26.4526 32.0399 27.1019 32.1074 27.75 32.0749C30.7 32.0749 34.45 30.8499 37.9 30.4249C39.0368 30.2759 40.1882 30.2759 41.325 30.4249V31.3749C41.422 32.2048 41.472 33.0394 41.475 33.8749V37.8749C41.2905 41.1531 41.8017 44.4333 42.975 47.4999C42.8263 47.4368 42.6626 47.4174 42.5032 47.4439C42.3438 47.4705 42.1953 47.5419 42.075 47.6499C41.3724 48.3225 40.7438 49.0684 40.2 49.8749C39.6471 50.7447 39.2653 51.712 39.075 52.7249C38.9302 53.7206 38.7214 54.706 38.45 55.6749C38.325 56.1249 38.175 56.5499 37.875 56.6999C36.95 57.1999 36.375 57.0999 36 56.5749C35.2488 55.0204 34.9129 53.2978 35.025 51.5749C34.7754 49.0392 35.0826 46.4796 35.925 44.0749C36.8617 41.7018 38.4258 39.6278 40.45 38.0749C40.5824 37.9596 40.6666 37.7989 40.686 37.6244C40.7053 37.45 40.6585 37.2747 40.5547 37.1331C40.4509 36.9916 40.2978 36.8942 40.1256 36.8603C39.9534 36.8264 39.7747 36.8583 39.625 36.9499C37.2039 38.4971 35.2505 40.6752 33.975 43.2499C32.8561 45.9292 32.3521 48.8252 32.5 51.7249C32.4382 53.9471 32.9643 56.1462 34.025 58.0999C34.2982 58.4872 34.6487 58.8136 35.0545 59.0584C35.4602 59.3032 35.9124 59.4612 36.3824 59.5223C36.8523 59.5834 37.3298 59.5463 37.7847 59.4133C38.2396 59.2804 38.6619 59.0545 39.025 58.7499C39.6956 58.3124 40.1843 57.646 40.4 56.8749C40.7268 55.6221 40.936 54.3416 41.025 53.0499C41.1061 52.2528 41.344 51.4797 41.725 50.7749C42.1447 50.0439 42.6481 49.3644 43.225 48.7499C43.3157 48.6727 43.3774 48.5669 43.4 48.4499C44.6773 51.231 46.4284 53.7688 48.575 55.9499C49.8384 57.3349 51.3364 58.4859 53 59.3499C54.3073 59.9834 55.8012 60.1168 57.2 59.7249C57.714 59.5788 58.1871 59.3154 58.5819 58.9553C58.9766 58.5952 59.2824 58.1483 59.475 57.6499C59.9063 56.3879 59.8708 55.013 59.375 53.7749Z" fill="white" fill-opacity="0.35"/>
</g>
<defs>
<clipPath id="clip0_18_451">
<rect width="60" height="60" fill="white"/>
</clipPath>
</defs>
</svg>
