<svg width="60" height="60" viewBox="0 0 60 60" fill="none" xmlns="http://www.w3.org/2000/svg">
<path d="M20.3125 11.25L19.7266 12.0117L17.5 15H15.625V13.125H8.125V15H4.375V48.75H53.125V15H40L37.7734 12.0117L37.1875 11.25H20.3125ZM22.1875 15H35.3125L37.5391 17.9883L38.125 18.75H49.375V26.25H38.4766C36.521 22.9028 32.8882 20.625 28.75 20.625C24.6118 20.625 20.979 22.9028 19.0234 26.25H8.125V18.75H19.375L19.9609 17.9883L22.1875 15ZM41.875 20.625V24.375H45.625V20.625H41.875ZM28.75 24.375C32.9175 24.375 36.25 27.7075 36.25 31.875C36.25 36.0425 32.9175 39.375 28.75 39.375C24.5825 39.375 21.25 36.0425 21.25 31.875C21.25 27.7075 24.5825 24.375 28.75 24.375ZM8.125 30H17.6758C17.5732 30.6006 17.5 31.2451 17.5 31.875C17.5 38.064 22.561 43.125 28.75 43.125C34.939 43.125 40 38.064 40 31.875C40 31.2451 39.9268 30.6006 39.8242 30H49.375V45H8.125V30Z" fill="white" fill-opacity="0.35"/>
</svg>
