<svg width="60" height="60" viewBox="0 0 60 60" fill="none" xmlns="http://www.w3.org/2000/svg">
<path d="M17.8125 11.25C15.3369 11.25 13.1323 12.8613 12.4219 15.2344L9.84375 23.8477L6.21094 22.6172L5.03906 26.1328L8.73047 27.3633L7.55859 31.3477C7.51465 31.5161 7.49268 31.6992 7.5 31.875V45C7.5 45.0586 7.5 45.1172 7.5 45.1758V46.875C7.5 47.9077 8.34229 48.75 9.375 48.75H15L15.6445 46.875H44.3555L45 48.75H50.625C51.6577 48.75 52.5 47.9077 52.5 46.875V45.293C52.5073 45.1978 52.5073 45.0952 52.5 45V31.875C52.5073 31.6992 52.4854 31.5161 52.4414 31.3477L51.2695 27.3633L54.9609 26.1328L53.7891 22.6172L50.1562 23.8477L47.5781 15.2344C46.8677 12.8613 44.6631 11.25 42.1875 11.25H17.8125ZM17.8125 15H42.1875C43.0225 15 43.7622 15.5493 44.0039 16.3477L46.4062 24.375H13.5938L15.9961 16.3477C16.2378 15.542 16.9775 15 17.8125 15ZM12.4805 28.125H47.5195L48.75 32.2266V43.125H11.25V32.2266L12.4805 28.125ZM15.9375 30C14.3848 30 13.125 31.2598 13.125 32.8125C13.125 34.3652 14.3848 35.625 15.9375 35.625C17.4902 35.625 18.75 34.3652 18.75 32.8125C18.75 31.2598 17.4902 30 15.9375 30ZM44.0625 30C42.5098 30 41.25 31.2598 41.25 32.8125C41.25 34.3652 42.5098 35.625 44.0625 35.625C45.6152 35.625 46.875 34.3652 46.875 32.8125C46.875 31.2598 45.6152 30 44.0625 30ZM22.5 35.625L20.1562 41.25H24.1992L25.0195 39.375H34.9805L35.8008 41.25H39.8438L37.5 35.625H22.5Z" fill="white" fill-opacity="0.35"/>
</svg>
