<svg width="60" height="60" viewBox="0 0 60 60" fill="none" xmlns="http://www.w3.org/2000/svg">
<path d="M30 9.14062L29.1211 9.60938L3.80859 22.7344L0.585938 24.375L3.75 25.957V41.7773C2.62939 42.4292 1.875 43.6157 1.875 45C1.875 47.0728 3.55225 48.75 5.625 48.75C7.69775 48.75 9.375 47.0728 9.375 45C9.375 43.6157 8.62061 42.4292 7.5 41.7773V27.8906L11.25 29.8242V39.375C11.25 40.2026 11.6309 40.9497 12.0703 41.4258C12.5098 41.9019 13.0444 42.1875 13.5938 42.4805C14.6997 43.0591 16.0107 43.4692 17.6367 43.8281C20.8887 44.5532 25.2246 45 30 45C34.7754 45 39.1113 44.5532 42.3633 43.8281C43.9893 43.4692 45.3003 43.0591 46.4062 42.4805C46.9556 42.1875 47.4902 41.9019 47.9297 41.4258C48.3691 40.9497 48.75 40.2026 48.75 39.375V29.8242L56.1914 26.0156L59.4141 24.375L56.1914 22.7344L30.8789 9.60938L30 9.14062ZM30 13.3594L51.2109 24.375L47.8711 26.0742C47.4463 25.6274 46.9336 25.2979 46.4062 25.0195C45.3076 24.4409 43.9893 24.0308 42.3633 23.6719C39.1187 22.9468 34.7974 22.5 30 22.5C25.2026 22.5 20.8813 22.9468 17.6367 23.6719C16.0107 24.0308 14.6924 24.4409 13.5938 25.0195C13.0664 25.2979 12.5537 25.6274 12.1289 26.0742L8.78906 24.375L30 13.3594ZM30 26.25C34.5776 26.25 38.6938 26.6675 41.543 27.3047C42.9639 27.6196 44.1064 27.9858 44.707 28.3008C44.8975 28.4033 44.9268 28.4766 45 28.5352V35.6836C44.2163 35.3979 43.3594 35.1416 42.3633 34.9219C39.1113 34.1968 34.7754 33.75 30 33.75C25.2246 33.75 20.8887 34.1968 17.6367 34.9219C16.6406 35.1416 15.7837 35.3979 15 35.6836V28.5352C15.0732 28.4766 15.1025 28.4033 15.293 28.3008C15.8936 27.9858 17.0361 27.6196 18.457 27.3047C21.3062 26.6675 25.4224 26.25 30 26.25ZM30 37.5C34.5483 37.5 38.6865 37.9175 41.543 38.5547C42.7295 38.8184 43.4766 39.0967 44.1211 39.375C43.4766 39.6533 42.7295 39.9316 41.543 40.1953C38.6865 40.8325 34.5483 41.25 30 41.25C25.4517 41.25 21.3135 40.8325 18.457 40.1953C17.2705 39.9316 16.5234 39.6533 15.8789 39.375C16.5234 39.0967 17.2705 38.8184 18.457 38.5547C21.3135 37.9175 25.4517 37.5 30 37.5Z" fill="white" fill-opacity="0.35"/>
</svg>
