<svg width="60" height="60" viewBox="0 0 60 60" fill="none" xmlns="http://www.w3.org/2000/svg">
<path d="M13.2422 3.75L17.9297 7.14844C26.77 13.5205 29.4507 19.7681 30 21.1523L28.3008 22.8516V22.9102L27.0117 24.1992L5.03906 46.9922L3.75 48.3398L11.7188 56.3086L13.0664 54.9023L36.3281 30.8203L36.9141 30.1172L37.0898 30L38.9062 29.3555L39.2578 29.707L38.5547 31.4062L38.0273 32.5781L44.2383 38.7891L56.1914 26.8359L50.8594 21.5039L49.9805 20.6836L48.8672 21.0938L47.168 21.7383L46.7578 21.3281L47.3438 19.4531L47.5781 18.6914L47.2266 17.9883C47.2266 17.9883 45.249 14.3188 40.7812 10.7812C36.3135 7.24365 29.2383 3.75 19.043 3.75H13.2422ZM24.5508 7.96875C30.8643 8.90625 35.4199 11.2793 38.4961 13.7109C41.8066 16.333 43.125 18.457 43.5352 19.1602L42.832 21.3281L42.5391 22.3828L43.3008 23.2031L46.2891 26.1914L47.4609 25.7227L49.1016 25.0781L50.8594 26.8359L44.2383 33.457L42.4805 31.6992L43.1836 30L43.7109 28.8281L42.7734 27.9492L40.6641 25.8398L39.8438 24.9609L38.6719 25.3711L35.332 26.7188L34.9805 26.8359L33.6328 25.5469L32.2852 24.1992L34.4531 22.0312L34.043 20.918C34.043 20.918 31.5234 14.5532 24.5508 7.96875ZM29.6484 26.8359L32.3438 29.5312L11.6602 50.918L9.02344 48.2812L29.6484 26.8359Z" fill="white" fill-opacity="0.35"/>
</svg>
