<svg width="60" height="60" viewBox="0 0 60 60" fill="none" xmlns="http://www.w3.org/2000/svg">
<g clip-path="url(#clip0_18_457)">
<path fill-rule="evenodd" clip-rule="evenodd" d="M24.35 45.7C23.3287 45.4761 22.3259 45.1753 21.35 44.8C20.394 44.4429 19.4802 43.9818 18.625 43.425C17.1381 42.4822 15.9049 41.1893 15.0332 39.6596C14.1616 38.1299 13.6781 36.4099 13.625 34.65C13.5072 31.1056 14.6104 27.6283 16.75 24.8C18.1149 22.904 19.8821 21.3332 21.925 20.2C23.9932 19.1044 26.2659 18.449 28.6 18.275C31.7023 18.0958 34.7875 18.8472 37.46 20.4329C40.1325 22.0185 42.2705 24.3663 43.6 27.175C44.3926 28.5025 44.9082 29.9768 45.1156 31.5089C45.323 33.0411 45.218 34.5994 44.8068 36.0898C44.3957 37.5803 43.6869 38.972 42.7233 40.1811C41.7596 41.3903 40.5611 42.3917 39.2 43.125C39.0873 43.1896 38.9886 43.2761 38.9097 43.3793C38.8309 43.4826 38.7734 43.6006 38.7408 43.7264C38.7082 43.8521 38.7011 43.9831 38.7198 44.1117C38.7386 44.2403 38.7828 44.3638 38.85 44.475C38.9121 44.5869 38.9962 44.6851 39.0973 44.7637C39.1983 44.8423 39.3142 44.8996 39.4379 44.9323C39.5617 44.965 39.6908 44.9724 39.8174 44.9539C39.9441 44.9355 40.0657 44.8916 40.175 44.825C48.2 40.425 49.125 32.55 46.1 25.975C44.582 22.6283 42.114 19.8015 39.0027 17.8458C35.8914 15.8901 32.2739 14.8918 28.6 14.975C25.785 15.1601 23.0452 15.9624 20.575 17.325C17.52 19.049 15.0256 21.6157 13.3898 24.7189C11.754 27.822 11.0459 31.3303 11.35 34.825C11.4706 36.9134 12.0925 38.942 13.163 40.7392C14.2335 42.5364 15.7211 44.0494 17.5 45.15C18.4976 45.7267 19.5535 46.196 20.65 46.55C21.7104 46.9149 22.7968 47.199 23.9 47.4C24.1318 47.4443 24.3718 47.3958 24.5682 47.2649C24.7646 47.1339 24.9017 46.9311 24.95 46.7C24.9904 46.4887 24.9515 46.27 24.8409 46.0855C24.7302 45.901 24.5554 45.7638 24.35 45.7Z" fill="white" fill-opacity="0.35"/>
<path fill-rule="evenodd" clip-rule="evenodd" d="M29.75 42.0002C30.8807 41.7778 31.9349 41.2675 32.8108 40.5186C33.6867 39.7697 34.3546 38.8076 34.75 37.7252C34.8148 37.6129 34.8558 37.4885 34.8707 37.3596C34.8855 37.2308 34.8739 37.1004 34.8364 36.9762C34.7989 36.8521 34.7364 36.737 34.6528 36.6379C34.5691 36.5388 34.4661 36.4579 34.35 36.4002C34.2377 36.3354 34.1133 36.2944 33.9845 36.2795C33.8557 36.2647 33.7252 36.2763 33.601 36.3138C33.4769 36.3513 33.3618 36.4138 33.2627 36.4974C33.1636 36.5811 33.0827 36.6841 33.025 36.8002C32.5382 37.5437 31.8398 38.1244 31.02 38.4675C30.2001 38.8106 29.2963 38.9004 28.425 38.7252C27.9109 38.6654 27.4067 38.5394 26.925 38.3502C25.6299 37.9376 24.5115 37.101 23.75 35.9752C23.7089 35.8544 23.6411 35.7444 23.5516 35.6534C23.4622 35.5624 23.3534 35.4926 23.2333 35.4494C23.1132 35.4062 22.9849 35.3906 22.858 35.4037C22.7311 35.4168 22.6087 35.4583 22.5 35.5252C22.2882 35.6184 22.1219 35.7917 22.0375 36.0073C21.9532 36.2228 21.9577 36.463 22.05 36.6752C22.5706 38.552 23.7745 40.1661 25.425 41.2002C26.1909 41.6482 27.0429 41.9293 27.925 42.0252C28.5311 42.1096 29.1465 42.1011 29.75 42.0002Z" fill="white" fill-opacity="0.35"/>
<path fill-rule="evenodd" clip-rule="evenodd" d="M59.725 31.1001C59.5692 30.4372 59.3254 29.7982 59 29.2001C58.4095 28.1494 57.6066 27.2333 56.6424 26.5102C55.6782 25.7871 54.574 25.2728 53.4 25.0001C53.2087 23.5297 52.9079 22.0757 52.5 20.6501C51.5733 17.4517 49.9587 14.4945 47.7692 11.9855C45.5798 9.47651 42.8685 7.47638 39.825 6.12511C36.6059 4.90851 33.1732 4.35872 29.7352 4.50914C26.2971 4.65955 22.9255 5.50702 19.825 7.00011C16.6362 8.30528 13.8171 10.3741 11.6156 13.0246C9.41416 15.6751 7.89781 18.826 7.19999 22.2001C7.19999 22.8001 7.19999 23.4001 7.04999 24.0001C5.77779 24.2374 4.57454 24.7555 3.52792 25.5166C2.48131 26.2778 1.61769 27.2629 0.99999 28.4001C0.674572 28.9982 0.430737 29.6372 0.27499 30.3001C-0.134795 31.6871 -0.134795 33.1631 0.27499 34.5501C0.647259 35.5954 1.27425 36.5315 2.09925 37.2735C2.92424 38.0156 3.92122 38.5403 4.99999 38.8001C5.497 38.9561 6.00758 39.0649 6.52499 39.1251C7.0321 39.1749 7.54288 39.1749 8.04999 39.1251C8.27887 39.1172 8.49809 39.0309 8.671 38.8807C8.84392 38.7306 8.96005 38.5256 8.99999 38.3001C9.1014 38.3489 9.21247 38.3742 9.32499 38.3742C9.43751 38.3742 9.54858 38.3489 9.64999 38.3001C9.80302 38.2311 9.93218 38.1182 10.0212 37.9758C10.1101 37.8335 10.155 37.6679 10.15 37.5001C9.56453 35.0371 9.19645 32.5275 9.04999 30.0001C8.9107 27.5295 9.08713 25.0511 9.57499 22.6251C10.3597 19.7473 11.8224 17.0993 13.8406 14.9028C15.8587 12.7062 18.3737 11.0251 21.175 10.0001C23.8886 8.69933 26.8355 7.95609 29.8414 7.81438C32.8473 7.67267 35.8511 8.13538 38.675 9.17511C41.3331 10.2953 43.7197 11.9731 45.6734 14.0951C47.6272 16.217 49.1027 18.7338 50 21.4751C51.8924 27.1846 51.7243 33.3767 49.525 38.9751C49.4764 39.0948 49.4522 39.223 49.4536 39.3522C49.455 39.4814 49.4821 39.609 49.5333 39.7277C49.5845 39.8463 49.6587 39.9536 49.7517 40.0433C49.8447 40.133 49.9546 40.2033 50.075 40.2501C50.2294 40.2998 50.3956 40.2998 50.55 40.2501C49.8552 41.7045 49.0178 43.0862 48.05 44.3751C47.1259 45.6278 46.0417 46.7541 44.825 47.7251C42.9541 49.4093 40.5416 50.3673 38.025 50.4251C37.9138 50.2234 37.7349 50.0676 37.5198 49.9852C37.3047 49.9028 37.0674 49.8993 36.85 49.9751C36.605 50.075 36.4096 50.2678 36.3065 50.5115C36.2034 50.7552 36.2011 51.0297 36.3 51.2751C36.3 51.6001 36.3 51.8251 35.975 52.0501C35.5749 52.3546 35.0997 52.5447 34.6 52.6001C33.9019 52.7331 33.1823 52.6988 32.5 52.5001C31.808 52.3307 31.1602 52.0153 30.6 51.5751C30.175 51.2751 29.85 51.0751 30 50.7751C30.1881 50.4103 30.4852 50.1132 30.85 49.9251L32.55 49.3751C33.0294 49.2963 33.5142 49.2545 34 49.2501H35.55C35.7721 49.2862 35.9994 49.2328 36.1822 49.1016C36.3649 48.9704 36.4882 48.7721 36.525 48.5501C36.5467 48.4368 36.5458 48.3203 36.5223 48.2074C36.4988 48.0945 36.4533 47.9873 36.3882 47.892C36.3231 47.7967 36.2399 47.7153 36.1432 47.6523C36.0466 47.5894 35.9384 47.5461 35.825 47.5251L32.5 46.9751C32.0758 46.9377 31.6492 46.9377 31.225 46.9751C30.7755 47.0098 30.3312 47.0937 29.9 47.2251C29.1914 47.402 28.5396 47.7565 28.006 48.2552C27.4723 48.7538 27.0745 49.3801 26.85 50.0751C26.6857 50.8663 26.7763 51.6892 27.1086 52.4258C27.441 53.1624 27.9981 53.7747 28.7 54.1751C29.7006 54.8357 30.837 55.2629 32.025 55.4251C33.1594 55.5399 34.3051 55.3946 35.375 55.0001C36.3988 54.6145 37.274 53.9143 37.875 53.0001C37.9843 52.7682 38.0681 52.5251 38.125 52.2751C40.7161 52.6198 43.349 52.1108 45.625 50.8251C47.6969 49.6201 49.4199 47.897 50.625 45.8251C51.7183 44.0315 52.4883 42.0599 52.9 40.0001H53.6C54.1159 39.9192 54.6255 39.8023 55.125 39.6501C56.1671 39.3612 57.1234 38.8235 57.9116 38.0832C58.6999 37.3428 59.2964 36.4221 59.65 35.4001C60.1031 34.0063 60.1293 32.5089 59.725 31.1001ZM6.82499 37.0001C6.46662 36.8801 6.11595 36.7382 5.77499 36.5751C5.1906 36.2898 4.67807 35.8764 4.27553 35.3657C3.873 34.8549 3.59082 34.26 3.44999 33.6251C3.28231 32.8002 3.28231 31.95 3.44999 31.1251C3.62376 30.0993 4.01478 29.1225 4.59686 28.2602C5.17894 27.3978 5.93862 26.6699 6.82499 26.1251C6.80014 27.4935 6.85021 28.8622 6.97499 30.2251C7.22489 32.6868 7.69341 35.1215 8.37499 37.5001C8.22499 37.5001 8.12499 37.3251 7.94999 37.3251L6.82499 37.0001ZM54.325 37.3501C50.55 39.1751 54.075 35.0001 53.65 27.0501C55.2292 28.2014 56.2966 29.9236 56.625 31.8501C56.7893 32.6753 56.7893 33.5249 56.625 34.3501C56.4849 35.002 56.1952 35.6124 55.7787 36.1331C55.3621 36.6537 54.8302 37.0704 54.225 37.3501H54.325Z" fill="white" fill-opacity="0.35"/>
<path fill-rule="evenodd" clip-rule="evenodd" d="M22.075 26.2752C21.6228 26.2626 21.1726 26.339 20.75 26.5002C19.8004 26.8736 18.9463 27.4544 18.25 28.2002C18.0553 28.3236 17.9172 28.5189 17.8657 28.7436C17.8142 28.9683 17.8535 29.2043 17.975 29.4002C18.325 30.0252 22.975 29.4002 23.875 29.4002C24.2736 29.4159 24.6686 29.4831 25.05 29.6002C25.2771 29.7327 25.5465 29.7729 25.8024 29.7124C26.0583 29.6519 26.2812 29.4954 26.425 29.2752C26.5562 29.0519 26.5956 28.7864 26.535 28.5346C26.4744 28.2828 26.3184 28.0643 26.1 27.9252C25.352 27.1799 24.4207 26.6453 23.4 26.3752C22.9672 26.2668 22.5191 26.233 22.075 26.2752Z" fill="white" fill-opacity="0.35"/>
<path fill-rule="evenodd" clip-rule="evenodd" d="M40.2 29.4001C40.3192 29.2012 40.3546 28.963 40.2984 28.738C40.2421 28.513 40.0988 28.3195 39.9 28.2001C39.2106 27.4463 38.3545 26.8641 37.4 26.5001C36.9773 26.339 36.5271 26.2625 36.075 26.2751C35.6198 26.2492 35.1634 26.2999 34.725 26.4251C33.7065 26.7006 32.7765 27.2345 32.025 27.9751C31.8107 28.1182 31.6599 28.3384 31.604 28.5899C31.5481 28.8414 31.5915 29.1048 31.725 29.3251C31.8644 29.5504 32.0875 29.7111 32.3453 29.772C32.6031 29.833 32.8745 29.7891 33.1 29.6501C33.4814 29.5331 33.8763 29.4658 34.275 29.4501C37.1 29.2251 39.675 30.3001 40.2 29.4001Z" fill="white" fill-opacity="0.35"/>
</g>
<defs>
<clipPath id="clip0_18_457">
<rect width="60" height="60" fill="white"/>
</clipPath>
</defs>
</svg>
