<svg width="60" height="60" viewBox="0 0 60 60" fill="none" xmlns="http://www.w3.org/2000/svg">
<path d="M9.375 11.25V36.6797L5.09766 41.0193C4.24828 41.8668 3.75 43.0364 3.75 44.2383C3.75 46.7133 5.78672 48.75 8.26172 48.75H51.7383C54.2133 48.75 56.25 46.7133 56.25 44.2383C56.25 43.0364 55.7517 41.865 54.9023 41.0156L50.625 36.6797V11.25H9.375ZM13.125 15H46.875V35.625H13.125V15ZM30 16.875L27.1875 33.75H30L32.8125 16.875H30ZM22.6611 20.625L19.4385 24.5032L18.75 25.3125L19.4385 26.1218L22.6611 30L24.6973 28.3813L22.1448 25.3125L24.6973 22.2437L22.6611 20.625ZM37.3389 20.625L35.3027 22.2437L37.8552 25.3125L35.3027 28.3813L37.3389 30L40.5615 26.1218L41.25 25.3125L40.5615 24.5032L37.3389 20.625ZM12.0703 39.375H47.9297L52.2656 43.6523C52.4119 43.7986 52.5 44.032 52.5 44.2383C52.5 44.692 52.192 45 51.7383 45H8.26172C7.80797 45 7.5 44.692 7.5 44.2383C7.5 44.0339 7.58812 43.8005 7.73438 43.6523L12.0703 39.375Z" fill="white" fill-opacity="0.35"/>
</svg>
