<svg width="60" height="60" viewBox="0 0 60 60" fill="none" xmlns="http://www.w3.org/2000/svg">
<g clip-path="url(#clip0_18_475)">
<path fill-rule="evenodd" clip-rule="evenodd" d="M21.4 50.3999L15.7 49.9999C14.45 49.9999 12.175 49.9999 10.2 49.7999C9.16196 49.8362 8.13614 49.5667 7.24999 49.0249C6.51394 48.0415 6.10318 46.8529 6.07499 45.6249C5.89165 43.5289 5.89165 41.4209 6.07499 39.3249C6.27499 35.6749 6.82499 27.7499 7.24999 20.7249C7.49999 14.9999 7.69999 9.99993 7.74999 8.29993C7.72915 7.46189 7.79618 6.62399 7.94999 5.79993C8.0311 5.2049 8.30304 4.65224 8.72499 4.22493C9.46998 3.6984 10.3248 3.34792 11.225 3.19993C11.4832 4.78569 11.8338 6.35503 12.275 7.89993C12.4933 8.82993 12.8471 9.7228 13.325 10.5499C14.2494 11.0622 15.2562 11.4091 16.3 11.5749C18.275 11.9999 20.95 12.3499 22.25 12.5249C23.9135 12.6701 25.5865 12.6701 27.25 12.5249C28.4345 12.4659 29.6045 12.2386 30.725 11.8499C31.4853 11.4207 32.1026 10.7774 32.5 9.99993C33.4996 7.75506 34.3352 5.44066 35 3.07493C35.8066 3.38605 36.4789 3.96983 36.9 4.72493C37.2166 5.24926 37.4844 5.80159 37.7 6.37493C37.9017 6.95414 38.0604 7.54741 38.175 8.14993C38.4803 10.2446 38.639 12.3581 38.65 14.4749C38.65 17.7999 38.5 21.2249 38.3 24.1249C38.3163 24.327 38.4042 24.5166 38.548 24.6595C38.6917 24.8024 38.8818 24.8892 39.084 24.9043C39.2861 24.9194 39.487 24.8618 39.6504 24.7418C39.8138 24.6218 39.9289 24.4473 39.975 24.2499C40.25 21.2999 40.525 17.8499 40.575 14.4749C40.6286 12.2609 40.5116 10.046 40.225 7.84993C40.1213 7.10955 39.9454 6.38109 39.7 5.67493C39.4669 4.96412 39.1655 4.27757 38.8 3.62493C38.2471 2.55172 37.3732 1.67777 36.3 1.12493C34.7959 0.440526 33.1507 0.123477 31.5 0.199926L16.625 -7.43465e-05C14.6901 -0.0785791 12.7526 0.0640103 10.85 0.424926C9.40365 0.650186 8.03694 1.23469 6.87499 2.12493C6.11934 2.78399 5.5793 3.65503 5.32499 4.62493C5.05364 5.80459 4.9443 7.01573 4.99999 8.22493L3.67499 39.2749C3.55504 41.8875 3.73962 44.5051 4.22499 47.0749C4.46341 48.3446 5.05227 49.5224 5.92499 50.4749C6.84987 51.132 7.94211 51.5135 9.07499 51.5749C11.3 51.8249 14.075 51.5749 15.675 51.5749L21.425 51.7749C21.5973 51.7431 21.7531 51.6519 21.8652 51.5171C21.9773 51.3824 22.0386 51.2127 22.0386 51.0374C22.0386 50.8622 21.9773 50.6924 21.8652 50.5577C21.7531 50.423 21.5973 50.3318 21.425 50.2999L21.4 50.3999ZM16.55 2.74993L31.55 2.57493H33.225C32.825 3.62493 32.1 5.44993 31.3 7.04993C30.1 9.54993 30.825 9.79993 27.025 9.89993C25.5145 9.93648 24.0032 9.87803 22.5 9.72493L14.775 8.87493C13.9136 6.96406 13.195 4.992 12.625 2.97493C13.9263 2.80638 15.238 2.73119 16.55 2.74993Z" fill="white" fill-opacity="0.35"/>
<path fill-rule="evenodd" clip-rule="evenodd" d="M51.95 44.7249C52.0119 44.3021 52.0119 43.8726 51.95 43.4499C51.916 43.1127 51.8575 42.7785 51.775 42.4499C52.9424 41.6753 54.0689 40.8409 55.15 39.9499C55.4863 39.7079 55.7641 39.3937 55.9631 39.0303C56.1621 38.6669 56.2772 38.2635 56.3 37.8499C56.1825 37.3004 55.9527 36.7812 55.625 36.3249C55.0743 35.4788 54.4285 34.6987 53.7 33.9999C53.0777 33.3855 52.3705 32.8635 51.6 32.4499C51.1083 32.2223 50.563 32.1357 50.025 32.1999C49.4816 32.3821 48.9801 32.6711 48.55 33.0499C47.725 33.6999 46.625 34.6749 45.8 35.3749C45.577 35.1306 45.3346 34.9048 45.075 34.6999C44.7139 34.3909 44.3198 34.1226 43.9 33.8999C43.9 33.1749 43.9 32.1749 43.775 31.3999C43.7585 30.7958 43.6226 30.2011 43.375 29.6499C43.1663 29.3755 42.9031 29.1472 42.6019 28.9794C42.3008 28.8116 41.9682 28.7079 41.625 28.6749C40.5189 28.6645 39.4142 28.7566 38.325 28.9499C37.6187 28.9677 36.9157 29.0513 36.225 29.1999C35.8187 29.3035 35.442 29.5004 35.125 29.7749C34.9112 30.1085 34.8226 30.5071 34.875 30.8999C34.875 31.7249 35.175 33.3999 35.325 34.5499C34.7292 34.7387 34.1518 34.9814 33.6 35.2749C33.3151 35.4204 33.0469 35.5965 32.8 35.7999C32.1145 35.0656 31.3703 34.3884 30.575 33.7749C30.153 33.4693 29.646 33.3032 29.125 33.2999C28.849 33.334 28.5887 33.4468 28.375 33.6249C27.975 33.9249 27.375 34.7999 26.8 35.3999C26.24 36.0277 25.7766 36.7355 25.425 37.4999C25.2 38.0012 25.1303 38.5585 25.225 39.0999C25.3881 39.4202 25.6183 39.7016 25.9 39.9249C26.575 40.4749 28.1 41.4249 28.925 42.1249C28.7848 42.6123 28.7174 43.1177 28.725 43.6249C28.7407 43.9857 28.7825 44.345 28.85 44.6999C27.8878 45.0353 26.9786 45.5067 26.15 46.0999C25.7781 46.351 25.474 46.69 25.2647 47.0869C25.0554 47.4837 24.9473 47.9262 24.95 48.3749C24.9897 48.7123 25.0825 49.0414 25.225 49.3499C25.55 49.9999 26.225 50.7999 26.45 51.2749C26.8443 52.1189 27.3579 52.9019 27.975 53.5999C28.2044 53.8406 28.4796 54.0332 28.7844 54.1662C29.0892 54.2993 29.4175 54.3702 29.75 54.3749C30.1994 54.357 30.6375 54.2282 31.025 53.9999C31.5765 53.6753 32.0955 53.2986 32.575 52.8749C32.8602 53.1114 33.1608 53.3285 33.475 53.5249C34.049 53.8743 34.6511 54.1754 35.275 54.4249C35.275 55.2249 35.05 56.1749 35 56.9249C34.9232 57.7087 35.0435 58.4993 35.35 59.2249C35.559 59.4563 35.8132 59.6422 36.0971 59.7713C36.3809 59.9003 36.6883 59.9696 37 59.9749C38.9452 60.0408 40.8926 59.9572 42.825 59.7249C43.1991 59.6936 43.5638 59.5918 43.9 59.4249C44.1485 59.3088 44.3557 59.1199 44.4942 58.8832C44.6326 58.6465 44.6957 58.3733 44.675 58.0999L44.575 54.9999L45.6 54.4749C46.075 54.1749 46.55 53.8249 46.975 53.4999C47.7 54.1999 48.6 54.9999 48.825 55.1999C49.1309 55.464 49.5096 55.6292 49.9112 55.6738C50.3129 55.7185 50.7186 55.6404 51.075 55.4499C52.0972 54.7973 53.0445 54.0344 53.9 53.1749C54.5354 52.6412 55.0472 51.9759 55.4 51.2249C55.7725 50.4463 55.9444 49.5868 55.9 48.7249C55.8096 48.0105 55.4632 47.3532 54.925 46.8749C53.9713 46.107 52.9783 45.3894 51.95 44.7249ZM52.85 49.9999C52.662 50.3822 52.3983 50.7224 52.075 50.9999C51.4 51.5749 50.4 51.9999 50.05 52.4249L48.35 50.7749C48.2433 50.5684 48.0869 50.3917 47.8949 50.2607C47.7028 50.1298 47.4812 50.0487 47.25 50.0249C47.019 50 46.7853 50.03 46.5681 50.1126C46.3509 50.1951 46.1562 50.3278 46 50.4999C45.5398 50.9867 45.0286 51.4226 44.475 51.7999C43.9877 52.1594 43.4361 52.4225 42.85 52.5749C42.5212 52.6431 42.2255 52.8216 42.0119 53.0807C41.7982 53.3398 41.6794 53.6641 41.675 53.9999L41.825 56.9749C40.4796 57.1151 39.1276 57.1818 37.775 57.1749C37.7737 56.049 37.891 54.9261 38.125 53.8249C38.2053 53.4905 38.1575 53.1382 37.9909 52.8374C37.8243 52.5366 37.551 52.3091 37.225 52.1999C36.5261 52.0088 35.8478 51.7492 35.2 51.4249C34.6995 51.2246 34.2661 50.8865 33.95 50.4499C33.8643 50.2881 33.7472 50.1451 33.6056 50.0292C33.4639 49.9132 33.3005 49.8268 33.125 49.7749C32.9475 49.7283 32.7622 49.7198 32.5813 49.75C32.4003 49.7801 32.2278 49.8482 32.075 49.9499C29.25 52.1749 30 52.5999 28.625 50.0749L27.3 48.1499C27.3 48.1499 27.3 47.9999 27.5 47.9249C27.7562 47.7076 28.0325 47.5151 28.325 47.3499C29.058 46.9545 29.8182 46.612 30.6 46.3249C30.8498 46.2194 31.0532 46.0273 31.1726 45.7838C31.2921 45.5404 31.3195 45.262 31.25 44.9999C31.0684 44.5446 30.9588 44.0638 30.925 43.5749C30.9 43.13 30.977 42.6854 31.15 42.2749C31.2353 42.091 31.2642 41.8861 31.2331 41.6858C31.2019 41.4856 31.1121 41.2991 30.975 41.1499C30.5684 40.7257 30.1156 40.3483 29.625 40.0249C28.9 39.4999 27.975 38.9249 27.425 38.5249C27.5657 37.8765 27.838 37.2638 28.225 36.7249C28.6333 36.1959 29.1033 35.7175 29.625 35.2999C29.8 35.4249 30 35.6249 30.225 35.8249C31 36.4999 31.8 37.3499 32.35 37.7499C32.4496 37.8322 32.5667 37.8908 32.6923 37.9211C32.8179 37.9514 32.9488 37.9527 33.075 37.9249C33.2015 37.8974 33.3206 37.843 33.4241 37.7653C33.5277 37.6877 33.6132 37.5886 33.675 37.4749C33.9574 37.1024 34.3384 36.8166 34.775 36.6499C38 35.0249 36.85 36.9749 36.5 30.8249H36.875C37.4162 30.792 37.9588 30.792 38.5 30.8249C39.3289 30.7072 40.1634 30.6321 41 30.5999C41.1593 30.5735 41.3226 30.5871 41.4753 30.6395C41.6281 30.6918 41.7654 30.7813 41.875 30.8999V34.5749C41.8341 34.7863 41.8662 35.0054 41.9662 35.1962C42.0661 35.3869 42.2279 35.5381 42.425 35.6249C42.8912 35.841 43.3212 36.1277 43.7 36.4749C44.0844 36.82 44.4207 37.2152 44.7 37.6499C44.7734 37.7615 44.869 37.8568 44.9809 37.9299C45.0927 38.003 45.2183 38.0523 45.35 38.0749C45.618 38.1276 45.896 38.0738 46.125 37.9249L50.275 34.6749C50.5 34.6749 50.725 34.8249 50.95 34.9749C51.3384 35.2835 51.7059 35.6175 52.05 35.9749C52.4329 36.396 52.7918 36.8384 53.125 37.2999C53.3221 37.5568 53.5056 37.8238 53.675 38.0999C52.3305 39.195 50.901 40.1814 49.4 41.0499C49.1485 41.2212 48.9623 41.4724 48.8716 41.7629C48.7808 42.0533 48.7908 42.3658 48.9 42.6499C49.0749 43.0463 49.1847 43.4684 49.225 43.8999C49.248 44.2974 49.1971 44.6958 49.075 45.0749C49 45.314 48.993 45.5692 49.0548 45.812C49.1166 46.0549 49.2448 46.2757 49.425 46.4499C51.15 47.7999 53.575 48.5999 52.85 49.9999Z" fill="white" fill-opacity="0.35"/>
<path fill-rule="evenodd" clip-rule="evenodd" d="M43 39.6249C42.6902 39.5235 42.3724 39.4482 42.05 39.3999C41.6008 39.3626 41.1492 39.3626 40.7 39.3999C40.5386 39.3406 40.3614 39.3406 40.2 39.3999C39.0961 39.1789 37.9497 39.4048 37.0123 40.0282C36.0749 40.6516 35.4231 41.6214 35.2 42.7249C34.9783 43.3293 34.8903 43.9748 34.9423 44.6165C34.9943 45.2583 35.1849 45.8812 35.501 46.4421C35.8172 47.003 36.2512 47.4887 36.7733 47.8656C37.2954 48.2424 37.893 48.5015 38.525 48.6249C39.8817 48.8215 41.2641 48.529 42.425 47.7999C43.4665 47.1284 44.3254 46.2094 44.925 45.1248C45.2046 44.637 45.384 44.0982 45.4527 43.5402C45.5213 42.9821 45.4779 42.4159 45.325 41.8748C45.149 41.3394 44.8454 40.8547 44.4403 40.4628C44.0353 40.0708 43.541 39.7832 43 39.6249ZM42.775 43.8499C42.2929 44.499 41.6686 45.0292 40.95 45.3998C40.3487 45.76 39.6476 45.9177 38.95 45.8499C38.6759 45.8003 38.4149 45.6946 38.1834 45.5396C37.952 45.3846 37.755 45.1834 37.6048 44.9488C37.4546 44.7141 37.3545 44.451 37.3107 44.1759C37.2668 43.9008 37.2802 43.6196 37.35 43.3499C37.6 42.0249 38.525 40.7248 40.125 40.9998C40.215 41.0243 40.31 41.0243 40.4 40.9998H40.575L42.3 41.4498C42.5244 41.538 42.7238 41.6798 42.8807 41.8628C43.0376 42.0459 43.1472 42.2646 43.2 42.4998C43.2276 42.9866 43.0765 43.4667 42.775 43.8499Z" fill="white" fill-opacity="0.35"/>
</g>
<defs>
<clipPath id="clip0_18_475">
<rect width="60" height="60" fill="white"/>
</clipPath>
</defs>
</svg>
