<svg width="60" height="60" viewBox="0 0 60 60" fill="none" xmlns="http://www.w3.org/2000/svg">
<path d="M13.75 9.375C10.6487 9.375 8.125 11.8987 8.125 15C8.125 18.1013 10.6487 20.625 13.75 20.625C16.8513 20.625 19.375 18.1013 19.375 15C19.375 11.8987 16.8513 9.375 13.75 9.375ZM43.75 9.375C40.6487 9.375 38.125 11.8987 38.125 15C38.125 18.1013 40.6487 20.625 43.75 20.625C46.8513 20.625 49.375 18.1013 49.375 15C49.375 11.8987 46.8513 9.375 43.75 9.375ZM13.75 13.125C14.785 13.125 15.625 13.965 15.625 15C15.625 16.035 14.785 16.875 13.75 16.875C12.715 16.875 11.875 16.035 11.875 15C11.875 13.965 12.715 13.125 13.75 13.125ZM43.75 13.125C44.785 13.125 45.625 13.965 45.625 15C45.625 16.035 44.785 16.875 43.75 16.875C42.715 16.875 41.875 16.035 41.875 15C41.875 13.965 42.715 13.125 43.75 13.125ZM11.5894 22.5C10.7812 22.5 10.0646 23.0149 9.80957 23.7817L6.48804 33.7463C5.97616 35.2782 6.50078 36.9639 7.83203 37.9614L13.75 42.1875V52.5H17.5V42.1875C17.5 41.0119 16.9387 39.8882 15.9656 39.1626L10.0439 34.9365L12.7173 26.9238C13.3548 28.602 14.4165 31.3147 14.4165 31.3147C14.8628 32.4716 15.6863 33.4548 16.7419 34.0979L21.25 37.5H36.25L40.7617 34.0979C41.8155 33.4567 42.6391 32.4714 43.0835 31.322C43.0835 31.322 44.13 28.6453 44.79 26.9128L47.489 34.9109L41.5051 39.1846C40.5639 39.8877 40 41.0119 40 42.1875V52.5H43.75L43.717 42.2131L49.7083 37.9358C51.002 36.9645 51.5238 35.28 51.012 33.75L47.6904 23.7817C47.4373 23.0149 46.7188 22.5 45.9106 22.5H44.6948C43.8473 22.5 42.3187 22.7961 41.5894 24.7705C41.1131 26.0755 39.5936 29.954 39.5898 29.9634C39.4342 30.3646 39.1444 30.7037 38.7769 30.9155C38.7094 30.953 38.6464 30.995 38.5864 31.04L36.25 32.7979V22.5H21.25V32.7979L18.9136 31.04C18.8517 30.995 18.7888 30.9549 18.7231 30.9155C18.3538 30.7018 18.0677 30.3648 17.9102 29.9561C17.9102 29.9561 16.3906 26.0719 15.9106 24.7632C15.185 22.7926 13.6527 22.5 12.8052 22.5H11.5894ZM25 26.25H32.5V33.75H25V26.25ZM6.7334 39.4812L6.35254 43.3228C6.31129 43.7371 6.20277 44.1361 6.03027 44.5129L2.37549 52.5H6.49902L9.4397 46.073C9.7847 45.3211 9.99985 44.5214 10.0842 43.6926L10.2527 41.9934L6.74072 39.4885C6.73885 39.4867 6.73527 39.4831 6.7334 39.4812ZM50.7666 39.4812L47.2473 41.9934L47.4158 43.6963C47.5001 44.5213 47.7153 45.3192 48.0603 46.073L51.001 52.5H55.1245L51.4697 44.5129C51.2972 44.1361 51.1906 43.7353 51.1475 43.3228L50.7666 39.4812Z" fill="white" fill-opacity="0.35"/>
</svg>
