<svg width="57" height="57" viewBox="0 0 57 57" fill="none" xmlns="http://www.w3.org/2000/svg">
<g clip-path="url(#clip0_18_480)">
<path d="M33.9863 46.5973C32.2932 47.6276 30.2983 48.0467 28.3338 47.7848C27.5269 47.7018 26.7309 47.5346 25.9588 47.286C25.1916 47.0461 24.4575 46.711 23.7738 46.2885C22.9282 45.8392 22.1881 45.215 21.6025 44.4574C21.0169 43.6998 20.5993 42.8262 20.3775 41.8948C20.3775 41.206 20.1875 40.5648 20.1875 39.8523C20.3027 38.0519 20.223 36.2443 19.95 34.461C19.7507 33.459 19.2542 32.5403 18.525 31.8248C18.1876 31.5323 17.76 31.3646 17.3138 31.3498C16.8268 31.3771 16.3425 31.4406 15.865 31.5398H11.2575H9.31C8.90221 30.8789 8.54495 30.1882 8.24125 29.4735C7.97286 28.7874 7.79715 28.0686 7.71875 27.336C7.64771 26.7762 7.64771 26.2096 7.71875 25.6498C7.79941 25.0943 7.95107 24.5516 8.17 24.0348C8.68033 22.4568 9.74289 21.1159 11.1625 20.2585C12.2372 19.7139 13.4252 19.4301 14.63 19.4301C15.8349 19.4301 17.0228 19.7139 18.0975 20.2585C19.3088 20.8048 26.2913 24.5098 21.6363 31.0885C21.5199 31.2681 21.4795 31.4865 21.524 31.6958C21.5686 31.9051 21.6943 32.0882 21.8738 32.2048C22.6721 32.9078 23.3819 33.7053 23.9875 34.5798C24.5837 35.4462 25.0778 36.3787 25.46 37.3585C25.8358 38.34 26.1375 39.3482 26.3625 40.3748C26.6048 41.2389 27.0165 42.0462 27.5738 42.7498C28.1058 43.3767 28.811 43.8327 29.601 44.0608C30.3909 44.289 31.2306 44.279 32.015 44.0323C32.3777 43.9432 32.7346 43.8322 33.0838 43.6998L34.0338 43.2485C34.1429 43.1986 34.2412 43.1277 34.3229 43.0398C34.4047 42.952 34.4683 42.8488 34.5102 42.7364C34.5521 42.6239 34.5715 42.5043 34.5671 42.3843C34.5628 42.2644 34.5349 42.1464 34.485 42.0373C34.4351 41.9281 34.3642 41.8299 34.2763 41.7481C34.1884 41.6663 34.0853 41.6027 33.9728 41.5608C33.8604 41.5189 33.7407 41.4996 33.6208 41.5039C33.5008 41.5082 33.3829 41.5361 33.2738 41.586L31.73 41.8948C31.3656 41.9595 30.9904 41.9177 30.6492 41.7745C30.3079 41.6312 30.0153 41.3926 29.8063 41.0873C29.4722 40.4567 29.2473 39.7742 29.1413 39.0685C28.9239 38.1157 28.5971 37.1913 28.1675 36.3135C27.5089 35.2173 26.7106 34.2113 25.7925 33.321C25.1223 32.7151 24.3899 32.1817 23.6075 31.7298C23.6075 31.7298 23.7975 31.7298 23.8688 31.5635C27.7163 26.101 24.3675 20.306 19.4038 17.8123C18.1584 17.1429 16.7904 16.7325 15.3822 16.606C13.974 16.4795 12.5547 16.6393 11.21 17.076C9.88806 17.5844 8.70683 18.4014 7.76486 19.4591C6.8229 20.5167 6.14749 21.7843 5.795 23.156C5.6016 23.8694 5.49005 24.6024 5.4625 25.341C5.41047 26.0893 5.46647 26.8412 5.62875 27.5735C5.82645 28.4646 6.13775 29.3267 6.555 30.1385C6.81993 30.6226 7.11336 31.0905 7.43375 31.5398C6.63924 31.5602 5.84641 31.6237 5.05875 31.7298C4.37722 31.8082 3.70748 31.9676 3.06375 32.2048C2.60441 32.377 2.20166 32.6729 1.9 33.0598C1.45899 33.6701 1.12934 34.3535 0.926251 35.0785C0.605567 36.4356 0.406859 37.8186 0.332501 39.211C-0.0426748 42.67 0.0772826 46.1647 0.688751 49.5898C1.09956 51.9356 2.01528 54.1641 3.3725 56.121C3.50076 56.2944 3.69137 56.4111 3.90408 56.4466C4.11679 56.482 4.33495 56.4334 4.5125 56.311C4.68424 56.1871 4.80039 56.0006 4.83593 55.7918C4.87147 55.583 4.82355 55.3686 4.7025 55.1948C3.60024 53.3905 2.91838 51.3611 2.7075 49.2573C2.34081 46.0373 2.44482 42.7811 3.01625 39.591C3.15875 38.7123 3.325 37.501 3.61 36.4085C3.72393 35.914 3.91637 35.4409 4.18 35.0073C3.96625 34.6273 5.13 34.8173 5.48625 34.7698C6.21819 34.6672 6.95596 34.6117 7.695 34.6035H11.2813C17.7413 34.366 17.1475 33.8673 17.4563 35.6485C17.6347 37.027 17.7299 38.4149 17.7413 39.8048C17.8345 42.1696 18.1769 44.518 18.7625 46.811C19.3112 49.0827 20.0419 51.3066 20.9475 53.461C21.0325 53.6878 21.2042 53.8715 21.4246 53.9717C21.6451 54.0719 21.8964 54.0804 22.1231 53.9954C22.3499 53.9104 22.5336 53.7387 22.6338 53.5183C22.734 53.2978 22.7425 53.0465 22.6575 52.8198C22.0918 51.1544 21.6239 49.4573 21.2563 47.7373C21.5411 48.0617 21.8508 48.3635 22.1825 48.6398C23.0674 49.3097 24.0647 49.8163 25.1275 50.136C26.1621 50.4728 27.2459 50.6334 28.3338 50.611C30.8784 50.6008 33.3303 49.6539 35.2213 47.951C35.3177 47.8787 35.3987 47.7878 35.4595 47.6837C35.5202 47.5796 35.5595 47.4644 35.575 47.3449C35.5905 47.2253 35.5819 47.1039 35.5497 46.9877C35.5175 46.8716 35.4623 46.763 35.3875 46.6685C35.3058 46.5634 35.2024 46.4771 35.0843 46.4155C34.9662 46.354 34.8362 46.3186 34.7032 46.3119C34.5702 46.3051 34.4373 46.3271 34.3136 46.3764C34.1899 46.4256 34.0782 46.501 33.9863 46.5973Z" fill="white" fill-opacity="0.35"/>
<path d="M33.7013 10.1648C33.8982 10.022 34.031 9.80735 34.071 9.56737C34.111 9.3274 34.0549 9.08132 33.915 8.88232C33.7643 8.68863 33.546 8.55901 33.3038 8.51938C33.0616 8.47974 32.8133 8.53303 32.6088 8.66857L26.5525 11.5661C25.7204 11.9884 24.9258 12.481 24.1775 13.0386C23.8284 13.3489 23.6152 13.7838 23.5838 14.2498C23.5507 14.493 23.5718 14.7406 23.6457 14.9746C23.7197 15.2087 23.8445 15.4235 24.0113 15.6036C24.32 15.9598 25.27 16.7436 25.3413 16.8148L30.6613 21.1848C30.8126 21.3356 31.0176 21.4203 31.2313 21.4203C31.4449 21.4203 31.6499 21.3356 31.8013 21.1848C31.9521 21.0335 32.0368 20.8285 32.0368 20.6148C32.0368 20.4011 31.9521 20.1962 31.8013 20.0448L27.455 14.6061L27.2175 14.4636L28.0963 14.0836L33.7013 10.1648Z" fill="white" fill-opacity="0.35"/>
<path d="M40.6837 19.7836C40.587 19.8521 40.5048 19.9391 40.4417 20.0395C40.3786 20.1399 40.3359 20.2517 40.316 20.3686C40.2962 20.4855 40.2996 20.6052 40.326 20.7208C40.3524 20.8364 40.4013 20.9456 40.47 21.0423C40.6165 21.2343 40.8307 21.3632 41.069 21.403C41.3072 21.4427 41.5516 21.3901 41.7525 21.2561L47.8087 18.3586C48.6458 17.9543 49.4412 17.469 50.1837 16.9098C50.5131 16.6142 50.724 16.2091 50.7775 15.7698C50.8103 15.5303 50.789 15.2864 50.715 15.0562C50.641 14.826 50.5163 14.6154 50.35 14.4398C49.9307 14.0105 49.4866 13.606 49.02 13.2286L43.7 8.83481C43.6269 8.75255 43.5378 8.68611 43.438 8.63955C43.3383 8.59299 43.2302 8.56731 43.1202 8.56407C43.0102 8.56083 42.9007 8.58011 42.7984 8.62072C42.6961 8.66133 42.6032 8.72242 42.5254 8.80023C42.4476 8.87804 42.3865 8.97094 42.3459 9.07321C42.3053 9.17549 42.286 9.28499 42.2893 9.39498C42.2925 9.50498 42.3182 9.61315 42.3647 9.71286C42.4113 9.81257 42.4777 9.90171 42.56 9.97481L46.9062 15.3186L47.1437 15.4848C46.8417 15.5892 46.5479 15.7162 46.265 15.8648L40.6837 19.7836Z" fill="white" fill-opacity="0.35"/>
<path d="M41.0638 5.60494C40.9658 5.56295 40.8604 5.54137 40.7539 5.5415C40.6473 5.54164 40.542 5.56349 40.4442 5.60572C40.3464 5.64795 40.2582 5.70968 40.1851 5.78713C40.1119 5.86458 40.0553 5.95613 40.0188 6.05619C39.1163 7.59994 38.2138 9.09619 37.4538 10.8062C37.1213 11.4949 36.86 12.2074 36.5987 12.9199C36.3375 13.6324 36.1238 14.3449 35.9338 15.0812C35.4825 16.8149 35.1738 18.5249 34.8413 20.2824C34.8049 20.3978 34.7922 20.5193 34.8038 20.6397C34.8153 20.76 34.851 20.8769 34.9086 20.9832C34.9662 21.0896 35.0445 21.1832 35.1391 21.2587C35.2336 21.3341 35.3423 21.3898 35.4588 21.4224C35.6918 21.4891 35.9417 21.4618 36.1548 21.3464C36.3679 21.2309 36.5273 21.0366 36.5987 20.8049C37.2637 19.1899 38 17.6224 38.665 16.0549C38.95 15.3662 39.235 14.6774 39.4962 13.9887C39.7614 13.2962 39.9913 12.5907 40.185 11.8749C40.6838 10.1887 41.04 8.50244 41.515 6.81619C41.5781 6.70953 41.6165 6.59013 41.6275 6.46671C41.6385 6.34329 41.6217 6.21898 41.5784 6.10287C41.5352 5.98676 41.4665 5.88179 41.3775 5.79563C41.2884 5.70948 41.1812 5.64433 41.0638 5.60494Z" fill="white" fill-opacity="0.35"/>
<path d="M56.7625 11.8749C55.3613 -0.902608 58.6862 3.20614 46.8825 1.51989C43.1525 0.973178 39.3934 0.648024 35.625 0.546143C33.725 0.546143 31.8488 0.546143 29.9725 0.712393C28.0963 0.878643 26.125 1.11614 24.2962 1.40114C22.4675 1.68614 20.8288 1.80489 19 2.08989C14.4163 2.87364 14.25 1.32989 14.0838 7.12489C14.0481 7.63886 14.0481 8.15468 14.0838 8.66864C14.1071 9.13898 14.1626 9.60715 14.25 10.0699C14.4875 11.2574 14.915 12.4449 15.1525 13.5136C15.161 13.6244 15.1923 13.7321 15.2444 13.8302C15.2965 13.9283 15.3682 14.0146 15.4551 14.0837C15.5421 14.1528 15.6423 14.2032 15.7496 14.2318C15.8569 14.2604 15.969 14.2666 16.0788 14.2499C16.1838 14.2469 16.2871 14.2228 16.3827 14.1791C16.4782 14.1354 16.564 14.0729 16.6349 13.9953C16.7058 13.9178 16.7604 13.8268 16.7954 13.7277C16.8304 13.6286 16.8452 13.5235 16.8388 13.4186C17.0907 12.0547 17.2337 10.6728 17.2663 9.28614C17.2497 8.4883 17.1623 7.6935 17.005 6.91114C16.8863 6.05614 16.625 5.22489 16.625 4.36989C17.5346 4.19153 18.4549 4.07253 19.38 4.01364C21.1375 3.89489 22.895 3.89489 24.605 3.82364C26.315 3.75239 28.2862 3.70489 30.1387 3.68114C31.9912 3.65739 33.82 3.68114 35.6488 3.68114C39.33 3.68114 42.9875 3.68114 46.6925 3.96614C48.7113 4.10864 50.8488 3.96614 52.915 3.96614H53.2475C53.39 5.08239 53.5563 6.19864 53.6275 7.33864C53.6988 8.47864 53.6275 9.71364 53.77 11.0436C53.9125 12.3736 53.8888 13.4186 53.96 14.7486C54.2213 18.5486 54.5063 22.3249 54.6013 26.0061C54.6196 26.1647 54.6859 26.3138 54.7913 26.4336C51.339 26.9295 47.8431 27.049 44.365 26.7899L40.0425 26.6474H37.1213C34.4648 26.702 31.8149 26.932 29.1888 27.3361C29.0726 27.3268 28.9557 27.3427 28.8462 27.3828C28.7368 27.4229 28.6373 27.4862 28.5546 27.5684C28.4719 27.6506 28.408 27.7497 28.3673 27.8589C28.3266 27.9681 28.31 28.0849 28.3187 28.2011C28.3273 28.3174 28.3611 28.4304 28.4176 28.5323C28.4741 28.6343 28.552 28.7229 28.6459 28.7919C28.7399 28.8609 28.8477 28.9087 28.9619 28.9321C29.0761 28.9555 29.194 28.9539 29.3075 28.9274C31.0888 28.9274 32.8463 28.9274 34.58 29.2124C34.4066 29.8208 34.2717 30.4395 34.1763 31.0649C34.1409 31.4996 34.1409 31.9364 34.1763 32.3711V33.6774C34.1763 34.7224 34.4375 35.6961 34.5325 36.7174C34.5126 36.9594 34.5886 37.1996 34.7441 37.3862C34.8996 37.5728 35.1221 37.6908 35.3638 37.7149C35.483 37.728 35.6036 37.7166 35.7182 37.6813C35.8329 37.646 35.9391 37.5876 36.0303 37.5098C36.1215 37.4319 36.1958 37.3362 36.2487 37.2285C36.3015 37.1208 36.3317 37.0034 36.3375 36.8836C36.6225 35.8386 36.8838 34.8411 37.0738 33.7724C37.11 33.3298 37.11 32.885 37.0738 32.4424C37.1211 32.0003 37.1211 31.5545 37.0738 31.1124C36.9916 30.5354 36.8726 29.9642 36.7175 29.4024L38.5462 29.5686C40.6312 29.7466 42.724 29.8179 44.8163 29.7824C48.3979 29.7477 51.9564 29.2039 55.385 28.1674C55.5027 28.1422 55.6141 28.0937 55.7128 28.0248C55.8114 27.9559 55.8953 27.868 55.9595 27.7662C56.0236 27.6644 56.0668 27.5508 56.0864 27.4321C56.1061 27.3134 56.1018 27.1919 56.0738 27.0749C56.0738 26.9324 55.9313 26.8611 55.86 26.7661C56.0168 26.709 56.1528 26.6059 56.2503 26.4703C56.3477 26.3348 56.402 26.173 56.4063 26.0061C56.6675 23.2274 56.9763 20.3536 57.0238 17.4561C57.0598 15.592 56.9726 13.7275 56.7625 11.8749Z" fill="white" fill-opacity="0.35"/>
<path d="M53.5562 42.3936C53.3879 41.5813 52.922 40.8613 52.25 40.3749C51.7074 40.0361 51.0844 39.8476 50.445 39.8286C49.4828 39.843 48.5227 39.9224 47.5713 40.0661L39.0925 41.2536C38.987 41.2652 38.8849 41.298 38.7924 41.3502C38.7 41.4024 38.6191 41.4728 38.5547 41.5572C38.4903 41.6416 38.4437 41.7382 38.4177 41.8412C38.3918 41.9441 38.387 42.0513 38.4038 42.1561C38.4153 42.2616 38.4482 42.3637 38.5004 42.4562C38.5525 42.5486 38.623 42.6295 38.7074 42.6939C38.7918 42.7583 38.8884 42.8049 38.9913 42.8309C39.0943 42.8568 39.2014 42.8616 39.3062 42.8449L47.9038 42.7499H49.6613C51.7275 42.7499 50.54 42.4649 50.7775 45.8136C50.9912 48.1886 52.8675 48.1886 48.545 48.3311L39.425 49.0199C39.1835 49.0322 38.9564 49.1384 38.7922 49.3159C38.628 49.4935 38.5397 49.7281 38.5463 49.9699C38.5493 50.0905 38.5764 50.2093 38.6261 50.3192C38.6758 50.4291 38.7471 50.528 38.8356 50.6099C38.9242 50.6918 39.0283 50.7552 39.1418 50.7962C39.2552 50.8372 39.3758 50.855 39.4962 50.8486L48.4975 50.9911C49.5629 51.1105 50.6383 51.1105 51.7038 50.9911C52.4056 50.8703 53.0573 50.5486 53.58 50.0649C53.9445 49.5791 54.1367 48.9858 54.1263 48.3786C54.0823 47.4478 53.9872 46.5202 53.8413 45.5999C53.8397 44.5249 53.7443 43.452 53.5562 42.3936Z" fill="white" fill-opacity="0.35"/>
</g>
<defs>
<clipPath id="clip0_18_480">
<rect width="57" height="57" fill="white"/>
</clipPath>
</defs>
</svg>
