<svg width="60" height="60" viewBox="0 0 60 60" fill="none" xmlns="http://www.w3.org/2000/svg">
<g clip-path="url(#clip0_18_434)">
<path d="M36.75 25.4501C34.075 23.3251 31.225 21.0001 28.625 18.8501L36.675 25.5501L36.75 25.4501Z" fill="white" fill-opacity="0.35"/>
<path d="M25.3 40C20.825 45.65 16.125 51.45 12.8 55.3C12.2754 55.8714 11.6379 56.3275 10.9278 56.6395C10.2178 56.9515 9.45061 57.1126 8.675 57.1126C7.89939 57.1126 7.13224 56.9515 6.42216 56.6395C5.71208 56.3275 5.07456 55.8714 4.55 55.3C2.8 53.45 2.65 50.3 5.775 46.675L27.675 20C27.675 19.15 26.875 18.325 25.775 19.6C23.875 21.8 19.075 27.5 3.7 45C-0.775001 50.225 -1.05673e-06 54.725 2.5 57.5C3.30579 58.3579 4.2819 59.038 5.36578 59.4967C6.44966 59.9554 7.61742 60.1826 8.79422 60.1637C9.97102 60.1449 11.1309 59.8805 12.1996 59.3873C13.2682 58.8942 14.2221 58.1832 15 57.3C17.675 54.05 21.2 49.475 24.75 44.8C29.75 38.275 34 32.1 36.85 28.125C37.575 26.725 36.1 26.3 35.575 27.325C32.95 30.375 29.525 34.75 25.3 40Z" fill="white" fill-opacity="0.35"/>
<path d="M58.775 17.0751C55.9374 13.7483 52.7714 10.7162 49.325 8.02512C46.0352 5.20159 42.4957 2.6829 38.75 0.500117C38.2739 0.247709 37.7581 0.0786038 37.225 0.000117388C36.9935 -0.0188445 36.7608 0.0190771 36.5473 0.11058C36.3338 0.202083 36.1459 0.344393 36 0.525117C35.4002 1.43939 34.5736 2.18254 33.6008 2.68204C32.6281 3.18154 31.5425 3.42034 30.45 3.37512C28.1266 3.11367 25.9726 2.03224 24.375 0.325117C24.1304 0.161163 23.8358 0.088817 23.5431 0.120832C23.2504 0.152847 22.9783 0.287168 22.775 0.500117C21.4881 1.73955 20.3089 3.08606 19.25 4.52512C18.85 5.07512 18.55 5.50012 18.45 5.67512C18.3541 5.8374 18.3168 6.02761 18.3441 6.2141C18.3713 6.40058 18.4617 6.5721 18.6 6.70012C19.55 7.42512 20.125 5.30012 23.35 2.22512C23.4292 2.12904 23.5218 2.04485 23.625 1.97512C25.4083 3.81721 27.7593 5.00595 30.3 5.35012C31.6052 5.46104 32.9181 5.26052 34.1307 4.76505C35.3433 4.26958 36.4209 3.49332 37.275 2.50012C37.8076 2.70609 38.3255 2.94833 38.825 3.22512C44.299 7.08096 49.4343 11.3966 54.175 16.1251C56.675 18.6251 58.675 17.7001 51.675 26.3751C50.8153 27.4889 49.8343 28.5035 48.75 29.4001C48.4875 29.6449 48.1825 29.8398 47.85 29.9751C47.85 29.8501 47.475 29.9751 47.225 29.7501C45.8344 28.9982 44.4903 28.1634 43.2 27.2501C37.25 23.1251 28.2 15.8751 23.6 12.2501L21.1 10.3001L20.75 10.0001C20.5 9.85012 18.8 10.4751 19.825 11.4001L20.525 12.0251C21.675 13.0001 24.05 15.0001 26.875 17.5001L28.625 18.9751C31.125 21.1251 43.15 30.4751 44.85 31.4751C45.7123 32.1203 46.7302 32.5257 47.8 32.6501C49.6765 32.1028 51.3254 30.9626 52.5 29.4001C55.1674 26.4627 57.483 23.2241 59.4 19.7501C59.5296 19.2877 59.5403 18.8 59.431 18.3323C59.3218 17.8647 59.0961 17.4322 58.775 17.0751Z" fill="white" fill-opacity="0.35"/>
</g>
<defs>
<clipPath id="clip0_18_434">
<rect width="60" height="60" fill="white"/>
</clipPath>
</defs>
</svg>
