<svg width="60" height="60" viewBox="0 0 60 60" fill="none" xmlns="http://www.w3.org/2000/svg">
<path d="M0 11.25V15H35.625V43.125H24.082C23.2471 39.9023 20.3467 37.5 16.875 37.5C13.4033 37.5 10.5029 39.9023 9.66797 43.125H7.5V33.75H3.75V46.875H9.66797C10.5029 50.0977 13.4033 52.5 16.875 52.5C20.3467 52.5 23.2471 50.0977 24.082 46.875H39.668C40.5029 50.0977 43.4033 52.5 46.875 52.5C50.3467 52.5 53.2471 50.0977 54.082 46.875H60V31.582L59.8828 31.2891L56.1328 20.0391L55.7227 18.75H39.375V11.25H0ZM1.875 18.75V22.5H18.75V18.75H1.875ZM39.375 22.5H53.0273L56.25 32.1094V43.125H54.082C53.2471 39.9023 50.3467 37.5 46.875 37.5C43.4033 37.5 40.5029 39.9023 39.668 43.125H39.375V22.5ZM3.75 26.25V30H15V26.25H3.75ZM16.875 41.25C18.9697 41.25 20.625 42.9053 20.625 45C20.625 47.0947 18.9697 48.75 16.875 48.75C14.7803 48.75 13.125 47.0947 13.125 45C13.125 42.9053 14.7803 41.25 16.875 41.25ZM46.875 41.25C48.9697 41.25 50.625 42.9053 50.625 45C50.625 47.0947 48.9697 48.75 46.875 48.75C44.7803 48.75 43.125 47.0947 43.125 45C43.125 42.9053 44.7803 41.25 46.875 41.25Z" fill="white" fill-opacity="0.35"/>
</svg>
