<svg width="60" height="60" viewBox="0 0 60 60" fill="none" xmlns="http://www.w3.org/2000/svg">
<g clip-path="url(#clip0_18_439)">
<path fill-rule="evenodd" clip-rule="evenodd" d="M30.125 34.6502C31.625 39.2502 37.375 40.3752 41.425 37.1502C48.4 31.8502 40.075 24.2002 38.925 26.3252C38.869 26.4229 38.8335 26.531 38.8209 26.6429C38.8082 26.7548 38.8186 26.8681 38.8514 26.9758C38.8842 27.0836 38.9387 27.1835 39.0115 27.2693C39.0844 27.3552 39.174 27.4253 39.275 27.4752C40.0279 27.9493 40.661 28.591 41.125 29.3502C44.675 34.8002 34.775 38.9252 32.7 33.6252C31.025 29.4002 35.95 25.9002 37.7 27.0002C37.8658 27.1129 38.0695 27.1551 38.2664 27.1176C38.4633 27.0801 38.6373 26.9659 38.75 26.8002C38.8627 26.6344 38.905 26.4307 38.8675 26.2338C38.8299 26.0368 38.7158 25.8629 38.55 25.7502C35.325 23.5752 28.075 28.4252 30.125 34.6502Z" fill="white" fill-opacity="0.35"/>
<path fill-rule="evenodd" clip-rule="evenodd" d="M40.3 30.0001C39.7 27.6501 35.3 29.2751 36.75 30.0001C38.2 30.7251 38.75 32.8001 39.625 32.5001C40.5 32.2001 40.35 30.1251 40.3 30.0001Z" fill="white" fill-opacity="0.35"/>
<path fill-rule="evenodd" clip-rule="evenodd" d="M43.05 21.0501C42.775 21.0501 40.975 18.2751 39.425 17.2751C38.725 16.8251 38.5 17.1001 36.275 17.2751C33.6948 17.4351 31.1596 18.0266 28.775 19.0251C27.575 19.6751 27.65 20.6251 27.475 21.5251C27.3 22.4251 27.475 24.5251 26.9 24.7751L20.55 26.7501C20.4413 26.802 20.3448 26.8764 20.267 26.9684C20.1893 27.0604 20.1319 27.1678 20.0988 27.2837C20.0657 27.3995 20.0576 27.5211 20.0751 27.6403C20.0925 27.7595 20.1351 27.8736 20.2 27.9751C20.0737 27.9317 19.9381 27.9229 19.8072 27.9495C19.6763 27.976 19.5549 28.0371 19.4555 28.1263C19.3562 28.2155 19.2824 28.3296 19.2419 28.4568C19.2013 28.5841 19.1955 28.7198 19.225 28.8501C18.871 31.2021 19.4545 33.599 20.85 35.5251C20.9149 35.7098 21.0416 35.8664 21.2086 35.9685C21.3756 36.0706 21.5728 36.1119 21.7668 36.0854C21.9607 36.059 22.1396 35.9664 22.2732 35.8233C22.4068 35.6802 22.4869 35.4954 22.5 35.3001C22.7058 32.8824 22.0408 30.4707 20.625 28.5001C20.925 28.5001 20.325 28.7001 27.875 26.8751C29.675 26.0501 29.575 23.5001 29.9 22.1751C30.05 21.4751 29.2 21.3251 32.4 20.7501C34.675 20.3251 37.825 20.1001 38.2 20.0251C43.4 25.1501 40.525 23.7251 48.775 22.5251C51.6 22.0751 50.9 22.6751 51.15 22.5251L52.275 26.5501C52.3148 26.7457 52.4306 26.9175 52.5971 27.0276C52.7635 27.1378 52.9669 27.1774 53.1625 27.1376C53.3581 27.0978 53.5299 26.9819 53.6401 26.8155C53.7502 26.6491 53.7898 26.4457 53.75 26.2501C52.975 21.7501 53.1 20.8001 50.875 20.4751C48.2527 20.3199 45.6214 20.5132 43.05 21.0501Z" fill="white" fill-opacity="0.35"/>
<path fill-rule="evenodd" clip-rule="evenodd" d="M33.85 3.82518C36.3275 4.82094 38.5195 6.41545 40.2298 8.466C41.94 10.5165 43.1151 12.9592 43.65 15.5752C43.65 15.7741 43.729 15.9649 43.8697 16.1055C44.0103 16.2462 44.2011 16.3252 44.4 16.3252C44.5989 16.3252 44.7897 16.2462 44.9303 16.1055C45.071 15.9649 45.15 15.7741 45.15 15.5752C45.4578 12.3496 44.4803 9.13291 42.43 6.62387C40.3797 4.11483 37.4222 2.51617 34.2 2.17518C34.0861 2.13564 33.9651 2.12078 33.845 2.1316C33.7249 2.14242 33.6085 2.17867 33.5035 2.23793C33.3984 2.2972 33.3073 2.37813 33.2359 2.47534C33.1646 2.57256 33.1148 2.68384 33.0897 2.8018C33.0647 2.91975 33.0651 3.04168 33.0908 3.15948C33.1165 3.27728 33.167 3.38827 33.2389 3.48506C33.3108 3.58185 33.4025 3.66224 33.5079 3.72088C33.6132 3.77952 33.7298 3.81508 33.85 3.82518Z" fill="white" fill-opacity="0.35"/>
<path fill-rule="evenodd" clip-rule="evenodd" d="M24.725 37.5001C21.7234 37.6616 18.8362 38.7052 16.425 40.5001L15.775 41.0751C15.631 40.3617 15.369 39.6774 15 39.0501C14.9467 38.8314 14.8089 38.6429 14.6167 38.5257C14.4246 38.4085 14.1938 38.3724 13.975 38.4251C13.3 38.5751 12.575 41.2751 13.725 43.4251C13.0403 44.3252 12.5237 45.3415 12.2 46.4251C11.8 47.3251 11.95 47.7501 12.2 47.8501C12.475 48.3501 13.05 48.3501 13.75 46.9001C13.9496 46.3891 14.1749 45.8884 14.425 45.4001C17.5 40.4001 26.2 37.5001 28.2 41.7001C28.6891 42.7833 28.8072 43.9975 28.536 45.1546C28.2648 46.3117 27.6195 47.3471 26.7 48.1001C22.325 52.0501 18.15 56.1751 12.5 56.8251C10.3676 57.2483 8.15939 57.0665 6.125 56.3001C-1.19209e-06 52.5001 2.5 42.8001 6.95 37.5001C8.82916 35.0117 11.0806 32.8277 13.625 31.0251C14.3411 31.6609 15.1201 32.2222 15.95 32.7001C16.1409 32.7937 16.36 32.8123 16.564 32.7524C16.768 32.6924 16.9421 32.5581 17.0519 32.3761C17.1618 32.194 17.1994 31.9774 17.1574 31.7689C17.1154 31.5605 16.9968 31.3754 16.825 31.2501C5 23.5251 10 0.275095 29.225 1.77509C29.4239 1.79499 29.6226 1.73505 29.7773 1.60846C29.932 1.48187 30.0301 1.29901 30.05 1.1001C30.0699 0.901183 30.0099 0.702515 29.8834 0.547798C29.7568 0.39308 29.5739 0.294986 29.375 0.275095C8.425 -2.17491 2.5 19.5501 12.5 30.0001C11.5209 30.6163 10.5929 31.3102 9.725 32.0751C-4.55 44.5751 -1.225 58.7501 7.975 59.8501C17.175 60.9501 22.5 55.6751 28.5 50.0001C33.35 45.4001 31.375 37.5001 24.725 37.5001Z" fill="white" fill-opacity="0.35"/>
<path fill-rule="evenodd" clip-rule="evenodd" d="M46.125 41.5001C47.575 40.8501 46.475 39.7251 44.625 39.9751C40.1702 40.2806 35.8119 41.4168 31.775 43.3251C31.6053 43.3885 31.4642 43.5111 31.3779 43.6705C31.2916 43.8298 31.2659 44.0149 31.3055 44.1917C31.3451 44.3685 31.4474 44.525 31.5935 44.6322C31.7395 44.7395 31.9194 44.7902 32.1 44.7751C36.8524 44.0462 41.5413 42.9513 46.125 41.5001Z" fill="white" fill-opacity="0.35"/>
<path fill-rule="evenodd" clip-rule="evenodd" d="M46.4 42.725C46.248 42.5439 46.0367 42.4225 45.8036 42.3824C45.5706 42.3423 45.3309 42.3861 45.1271 42.506C44.9232 42.6259 44.7685 42.8141 44.6903 43.0373C44.6121 43.2605 44.6156 43.5041 44.7 43.725C46.2108 48.0559 47.3974 52.4931 48.25 57C48.25 57.2254 48.3395 57.4416 48.499 57.601C48.6584 57.7604 48.8746 57.85 49.1 57.85C49.3254 57.85 49.5416 57.7604 49.701 57.601C49.8604 57.4416 49.95 57.2254 49.95 57C50.5978 51.9649 49.3308 46.8701 46.4 42.725Z" fill="white" fill-opacity="0.35"/>
<path fill-rule="evenodd" clip-rule="evenodd" d="M59.1 30.9501C58.6239 30.1795 57.9955 29.5143 57.2531 28.9952C56.5108 28.4762 55.6702 28.1143 54.783 27.9317C53.8958 27.7491 52.9807 27.7497 52.0937 27.9334C51.2068 28.1171 50.3667 28.4801 49.625 29.0001C48.7892 29.5393 48.0742 30.2458 47.525 31.0751C42.975 38.5751 48 44.9501 55.025 43.5751C59.8 42.5001 61.125 34.6751 59.1 30.9501ZM57.15 37.2251C56.275 40.4251 55 40.8751 52.825 40.8501C52.1445 40.9176 51.4595 40.7798 50.858 40.4545C50.2565 40.1293 49.7661 39.6314 49.45 39.0251C48.6527 38.0394 48.1973 36.8213 48.1522 35.5543C48.1071 34.2873 48.4748 33.04 49.2 32.0001C49.5734 31.3695 50.0659 30.8176 50.65 30.3751C51.4646 29.8055 52.4496 29.5321 53.4412 29.6004C54.4328 29.6686 55.3711 30.0743 56.1 30.7501C56.5493 31.0403 56.912 31.4462 57.15 31.9251C57.7166 33.6463 57.7166 35.5039 57.15 37.2251Z" fill="white" fill-opacity="0.35"/>
<path fill-rule="evenodd" clip-rule="evenodd" d="M17.075 25.9C17.1523 26.0411 17.2693 26.1566 17.4114 26.2321C17.5536 26.3076 17.7147 26.3399 17.875 26.325C18.0228 26.3256 18.1681 26.2865 18.2957 26.2117C18.4232 26.137 18.5283 26.0293 18.6 25.9C19.9222 25.2764 21.1645 24.4958 22.3 23.575C22.4917 23.3926 22.6266 23.1588 22.6887 22.9016C22.7508 22.6444 22.7374 22.3747 22.65 22.125C21.453 20.8746 19.9138 20.005 18.225 19.625C18.0824 19.6216 17.9412 19.6542 17.8145 19.7198C17.6878 19.7853 17.5797 19.8817 17.5 20C17.35 20.375 17.2 20.55 19.275 22.5C18.175 23.625 16.45 25 17.075 25.9Z" fill="white" fill-opacity="0.35"/>
<path fill-rule="evenodd" clip-rule="evenodd" d="M20 15.0001C15 16.0751 13.5 15.0001 13.375 16.2001C13.3611 16.4018 13.4264 16.6009 13.5572 16.755C13.688 16.9091 13.8738 17.0061 14.075 17.0251C21.075 18.0501 25.675 17.3751 33.075 11.5251C33.225 11.4001 33.45 11.3501 33.55 11.2501L36.775 14.6751C36.8472 14.7605 36.9356 14.8308 37.035 14.882C37.1344 14.9332 37.2429 14.9644 37.3543 14.9737C37.4657 14.983 37.5779 14.9702 37.6844 14.9361C37.7909 14.9021 37.8896 14.8474 37.975 14.7751C38.0604 14.7029 38.1307 14.6146 38.1819 14.5152C38.2331 14.4158 38.2642 14.3073 38.2735 14.1959C38.2828 14.0844 38.2701 13.9723 38.236 13.8658C38.2019 13.7593 38.1472 13.6605 38.075 13.5751C36.4 11.3251 35.15 9.25015 34 8.87515C32.85 8.50015 31.5 9.72515 30.725 10.1251C24.6 13.5001 23.4 14.4251 20 15.0001Z" fill="white" fill-opacity="0.35"/>
</g>
<defs>
<clipPath id="clip0_18_439">
<rect width="60" height="60" fill="white"/>
</clipPath>
</defs>
</svg>
