<svg width="60" height="60" viewBox="0 0 60 60" fill="none" xmlns="http://www.w3.org/2000/svg">
<path d="M8.59375 5.15625L7.53906 6.15234L4.90234 8.78906L3.90625 9.84375L4.66797 11.0742L8.59375 17.6367L9.12109 18.5742H14.6289L22.1289 26.0156C15.4272 32.7466 6.90185 41.3013 6.60156 41.6016C3.66455 44.5386 3.65723 49.3506 6.66016 52.1484C9.58984 55.0415 14.3652 55.1147 17.1484 52.1484C17.1704 52.1265 17.1851 52.1118 17.207 52.0898L28.75 40.4883L40.3516 52.1484L40.5273 52.2656C43.4717 55.0415 48.1519 55.0781 50.8984 52.1484V52.0898H50.957C53.8281 49.1528 53.8574 44.3774 50.8984 41.6016L50.8398 41.543L41.0547 31.8164C47.6392 31.2012 52.7954 25.6421 52.8906 18.9258H52.9492C52.9565 18.8892 52.9492 18.8452 52.9492 18.8086C52.9492 18.7866 52.9492 18.772 52.9492 18.75C53.1323 16.582 52.6636 14.5093 51.543 12.7148L50.2539 10.7227L41.5234 19.4531L38.8867 16.6992L47.793 7.79297L45.2148 6.73828C43.7061 6.09375 41.9629 5.625 40 5.625C32.793 5.625 26.875 11.543 26.875 18.75C26.875 19.5337 27.0435 20.2148 27.168 20.918C26.3477 21.7383 25.7324 22.4121 24.7656 23.3789L17.3242 15.9375V10.3711L16.3867 9.84375L9.82422 5.91797L8.59375 5.15625ZM40 9.375C40.2637 9.375 40.4468 9.52881 40.7031 9.55078L33.6133 16.6406L34.9023 17.9883L40.1758 23.4375L41.4648 24.7852L48.9062 17.3438C48.9429 17.7759 49.2505 18.0908 49.1992 18.5742V18.75C49.1992 23.9136 44.9878 28.125 39.8242 28.125C39.1357 28.125 38.3008 27.9639 37.3633 27.7734L36.3672 27.5977L35.6641 28.3008L14.5117 49.5117H14.4531V49.5703C13.1201 51.0278 10.791 51.0645 9.23828 49.5117V49.4531H9.17969C7.72217 48.1201 7.68555 45.791 9.23828 44.2383C9.94873 43.5278 23.7109 29.6484 30.4492 22.9102L31.2109 22.1484L30.918 21.0938C30.7642 20.4858 30.625 19.4385 30.625 18.75C30.625 13.5864 34.8364 9.375 40 9.375ZM9.17969 9.84375L13.5742 12.5391V14.4141L13.1641 14.8242H11.2891L8.59375 10.4297L9.17969 9.84375ZM36.6016 32.6367L48.2617 44.2383V44.2969H48.3203C49.7778 45.6299 49.8145 47.959 48.2617 49.5117H48.2031V49.5703C46.8701 51.0278 44.541 51.0645 42.9883 49.5117L31.3867 37.8516L36.6016 32.6367Z" fill="white" fill-opacity="0.35"/>
</svg>
